<svg width="1843" height="496" version="1.1" xmlns="http://www.w3.org/2000/svg" desc="Created with imagetracer.js version 1.2.6" ><path fill="rgb(47,47,47)" stroke="rgb(47,47,47)" stroke-width="1" opacity="1" d="M 234 8 L 310 8 L 310 197.5 L 310.5 198 L 318.5 198 L 329.5 196 L 345.5 189 L 360 176.5 Q 367.5 168 372 156.5 L 378 133.5 L 378 8 L 386.5 8 L 387 8.5 L 387 129.5 L 386 130.5 L 385 143.5 L 379 162.5 Q 371.6 179.1 358.5 190 Q 347.5 199.5 331.5 204 L 321.5 206 L 299.5 206 L 288.5 204 L 275.5 199 Q 260.8 191.3 251 178.5 L 240 158.5 L 234 134.5 L 234 8 Z M 242 16 L 242 124 L 243 125 L 243 136 L 249 158 L 259 175 Q 267 185 279 191 L 292 196 L 301 197 L 302 198 L 302 17 L 302 16 L 242 16 Z " /><path fill="rgb(47,47,47)" stroke="rgb(47,47,47)" stroke-width="1" opacity="1" d="M 1232.5 265 Q 1239.4 264.1 1241 268.5 L 1242 274.5 L 1238.5 279 L 1232.5 280 L 1228 276.5 L 1227 270.5 L 1230.5 266 L 1232.5 265 Z " /><path fill="rgb(47,47,47)" stroke="rgb(47,47,47)" stroke-width="1" opacity="1" d="M 342.5 272 Q 365.8 269.2 377 278.5 L 372.5 286 L 358.5 280 L 344.5 280 Q 338 281.5 335 286.5 Q 332.2 289.2 333 295.5 Q 334.4 301.6 339.5 304 L 348.5 307 L 365.5 310 L 377 317.5 Q 383.2 323.8 382 337.5 Q 379.7 348.2 371.5 353 Q 360.6 360.6 339.5 358 L 322 352 L 324 343 Q 334.8 349.5 352.5 350 L 362.5 348 L 370 342.5 Q 373.7 338.2 372 328.5 L 366.5 321 L 359.5 318 L 336.5 313 L 327 305.5 Q 322.5 300 324 288.5 Q 326.1 281.1 331.5 277 L 342.5 272 Z " /><path fill="rgb(47,47,47)" stroke="rgb(47,47,47)" stroke-width="1" opacity="1" d="M 457.5 272 L 477.5 272 L 484.5 274 Q 496.8 278.8 504 288.5 Q 513.4 299.6 512 321.5 Q 508.9 338.9 497.5 348 Q 485.4 360.4 458.5 358 Q 440.3 354.3 431 341.5 Q 425 334.5 423 323.5 L 423 306.5 Q 426.6 288.6 439.5 280 Q 446.8 274.3 457.5 272 Z M 461 280 L 447 286 Q 436 293 433 307 L 433 324 L 439 337 Q 447 347 463 350 Q 481 351 490 343 Q 499 336 502 323 L 502 308 L 496 294 Q 490 285 479 281 L 461 280 Z " /><path fill="rgb(47,47,47)" stroke="rgb(47,47,47)" stroke-width="1" opacity="1" d="M 1616.5 272 Q 1639.8 269.2 1651 278.5 L 1646.5 286 L 1632.5 280 L 1618.5 280 Q 1612.8 281.3 1610 285.5 Q 1606.2 288.7 1608 297.5 L 1612.5 303 L 1619.5 306 L 1639.5 310 Q 1647.5 312.5 1652 318.5 Q 1658.2 324.8 1656 339.5 Q 1653.5 347.5 1647.5 352 Q 1636.6 360.6 1614.5 358 L 1602.5 355 L 1596 352 Q 1596 346.2 1599.5 343 Q 1609.9 350.1 1627.5 350 L 1636.5 348 L 1645 341.5 L 1647 331.5 Q 1645.9 324.1 1640.5 321 L 1634.5 318 L 1613.5 314 Q 1605.4 311.1 1601 304.5 L 1598 296.5 L 1598 291.5 Q 1599.6 280.6 1607.5 276 L 1616.5 272 Z " /><path fill="rgb(47,47,47)" stroke="rgb(47,47,47)" stroke-width="1" opacity="1" d="M 1702.5 272 L 1721.5 272 L 1725.5 273 L 1733.5 276 L 1744 283 L 1751 292.5 L 1755 301.5 L 1756 306.5 L 1756 323.5 Q 1752.6 340.6 1740.5 349 Q 1732.6 355.6 1720.5 358 L 1703.5 358 Q 1685.3 354.7 1676 342.5 Q 1665.5 331.5 1667 308.5 Q 1670.1 290.1 1682.5 281 Q 1690.1 274.1 1702.5 272 Z M 1706 280 Q 1696 282 1690 287 Q 1680 294 1677 308 L 1677 323 Q 1679 332 1684 338 L 1693 345 L 1702 349 Q 1706 348 1708 350 Q 1725 351 1734 343 Q 1741 338 1745 328 L 1746 317 L 1747 316 L 1745 303 L 1741 295 Q 1735 286 1726 282 Q 1718 279 1706 280 Z " /><path fill="rgb(47,47,47)" stroke="rgb(47,47,47)" stroke-width="1" opacity="1" d="M 6 273 L 15.5 273 L 16 273.5 L 16 327.5 L 20 339.5 L 26.5 346 L 36.5 350 L 45.5 350 Q 55.9 347.9 61 340.5 L 66 326.5 L 66 273 L 75.5 273 L 76 273.5 L 76 323.5 L 73 338.5 Q 69.4 347.9 61.5 353 Q 51.7 360.2 32.5 358 Q 20.5 355.5 14 347.5 L 9 338.5 L 6 324.5 L 6 273 Z " /><path fill="rgb(47,47,47)" stroke="rgb(47,47,47)" stroke-width="1" opacity="1" d="M 122 273 L 130.5 273 L 131 273.5 L 131 348 L 170.5 348 Q 173.5 349.5 172 355.5 L 170.5 357 L 122 357 L 122 273 Z " /><path fill="rgb(47,47,47)" stroke="rgb(47,47,47)" stroke-width="1" opacity="1" d="M 210 273 L 218.5 273 L 220 274.5 L 220 329.5 Q 222 340.5 229.5 346 L 235.5 349 L 248.5 350 Q 258.8 348.3 264 341.5 L 269 329.5 L 269 274.5 L 270.5 273 L 278.5 273 L 279 273.5 L 279 328.5 L 274 343.5 L 266.5 352 Q 256.9 360.4 236.5 358 Q 222.6 355.4 216 345.5 L 212 337.5 L 210 329.5 L 210 273 Z " /><path fill="rgb(47,47,47)" stroke="rgb(47,47,47)" stroke-width="1" opacity="1" d="M 545.5 273 L 555.5 273 L 557 274.5 L 582.5 315 L 608.5 273 L 619 273.5 L 587 323.5 L 587 357 L 578.5 357 L 577 355.5 L 577 323.5 L 545.5 273 Z " /><path fill="rgb(47,47,47)" stroke="rgb(47,47,47)" stroke-width="1" opacity="1" d="M 855.5 273 L 865.5 273 L 867 274.5 L 902 357 L 892.5 357 L 891 355.5 L 883 334.5 L 879.5 329 L 840.5 329 L 840 330.5 L 829 357 L 819.5 357 L 819 355.5 L 855.5 273 Z M 859 283 L 844 320 L 876 320 L 862 285 L 859 283 Z " /><path fill="rgb(47,47,47)" stroke="rgb(47,47,47)" stroke-width="1" opacity="1" d="M 1039.5 273 L 1090.5 273 L 1091 273.5 L 1091 280.5 L 1089.5 282 L 1048 282 L 1048 309 L 1085.5 309 L 1086 309.5 L 1086 317 L 1048 317 L 1048 348 L 1092.5 348 L 1093 348.5 L 1093 355.5 L 1091.5 357 L 1039.5 357 L 1038 355.5 L 1038 274.5 L 1039.5 273 Z " /><path fill="rgb(47,47,47)" stroke="rgb(47,47,47)" stroke-width="1" opacity="1" d="M 1371 273 L 1380.5 273 L 1381 273.5 L 1381 329.5 Q 1382.8 339.8 1389.5 345 Q 1396.3 350.7 1409.5 350 Q 1419.8 348.3 1425 341.5 L 1430 330.5 L 1430 321.5 L 1431 320.5 L 1431 273 L 1439.5 273 L 1440 273.5 L 1440 329.5 L 1438 337.5 L 1434 345.5 L 1427.5 352 Q 1417.9 360.4 1397.5 358 Q 1384.6 355.4 1378 346.5 L 1374 339.5 L 1371 328.5 L 1371 273 Z " /><path fill="rgb(47,47,47)" stroke="rgb(47,47,47)" stroke-width="1" opacity="1" d="M 1456 273 L 1465.5 273 L 1466 273.5 L 1466 348 L 1505.5 348 L 1506 348.5 L 1506 357 L 1457.5 357 L 1456 355.5 L 1456 273 Z " /><path fill="rgb(47,47,47)" stroke="rgb(47,47,47)" stroke-width="1" opacity="1" d="M 1514 273 L 1523.5 273 L 1524 273.5 L 1524 327.5 L 1528 339.5 L 1534.5 346 L 1544.5 350 L 1553.5 350 Q 1563.9 347.9 1569 340.5 L 1574 326.5 L 1574 273 L 1583.5 273 L 1584 273.5 L 1584 323.5 L 1581 338.5 Q 1577.4 347.9 1569.5 353 Q 1559.7 360.2 1540.5 358 Q 1528.5 355.5 1522 347.5 L 1517 338.5 L 1514 324.5 L 1514 273 Z " /><path fill="rgb(47,47,47)" stroke="rgb(47,47,47)" stroke-width="1" opacity="1" d="M 1760 273 L 1769.5 273 L 1772 275.5 L 1796.5 315 L 1822 273 L 1833 273.5 L 1801 324.5 L 1801 357 L 1792.5 357 L 1792 356.5 L 1792 324.5 L 1761 276.5 L 1760 273 Z " /><path fill="rgb(47,47,47)" stroke="rgb(47,47,47)" stroke-width="1" opacity="1" d="M 1135.5 291 Q 1154.8 289.8 1161 301.5 Q 1160.3 303.8 1162.5 303 Q 1171.1 290.1 1193.5 291 Q 1203 292.6 1208 298.5 L 1213 309.5 L 1213 357 L 1205.5 357 L 1204 355.5 L 1204 312.5 Q 1202.6 304.4 1196.5 301 Q 1192.5 298 1184.5 299 Q 1173.2 301.2 1167 308.5 L 1165 311.5 L 1165 357 L 1156.5 357 L 1156 356.5 L 1156 314.5 L 1153 305.5 L 1148.5 301 L 1142.5 299 L 1136.5 299 Q 1124 301 1118 309.5 L 1116 312.5 L 1116 355.5 L 1114.5 357 L 1107.5 357 L 1107 356.5 L 1107 292 L 1114 292 L 1114 295.5 L 1115.5 304 L 1121.5 297 L 1135.5 291 Z " /><path fill="rgb(47,47,47)" stroke="rgb(47,47,47)" stroke-width="1" opacity="1" d="M 1285.5 291 L 1300.5 292 Q 1308.6 294.9 1313 301.5 L 1317 311.5 L 1317 357 L 1308.5 357 L 1308 356.5 L 1308 314.5 L 1305 305.5 L 1301.5 302 L 1293.5 299 L 1286.5 299 L 1274.5 303 L 1266 311.5 L 1265 313.5 L 1265 357 L 1256.5 357 L 1256 356.5 L 1256 292 Q 1262.1 290.3 1264 293.5 L 1264 301.5 L 1265.5 303 L 1270.5 297 L 1277.5 293 L 1285.5 291 Z " /><path fill="rgb(47,47,47)" stroke="rgb(47,47,47)" stroke-width="1" opacity="1" d="M 902 292 L 911.5 292 L 912 293.5 L 935 348 Q 938 349.3 937 345.5 L 961.5 292 L 970.5 292 L 971 293.5 L 943 354.5 L 940.5 357 L 930.5 357 L 929 355.5 L 904 299.5 L 902 292 Z " /><path fill="rgb(47,47,47)" stroke="rgb(47,47,47)" stroke-width="1" opacity="1" d="M 1230 292 L 1238.5 292 L 1239 292.5 L 1239 357 L 1230.5 357 L 1230 356.5 L 1230 292 Z " /><path fill="rgb(47,47,47)" stroke="rgb(47,47,47)" stroke-width="1" opacity="1" d="M 975.5 343 Q 982.8 341.8 985 345.5 L 986 352.5 L 982.5 357 L 977.5 358 L 972 354.5 L 971 347.5 L 973.5 344 L 975.5 343 Z " /><path fill="rgb(47,47,47)" stroke="rgb(47,47,47)" stroke-width="1" opacity="1" d="M 360.5 435 Q 364.3 434.3 365 436.5 Q 365.8 440.3 363.5 441 Q 359.8 441.8 359 439.5 Q 358.3 435.8 360.5 435 Z " /><path fill="rgb(47,47,47)" stroke="rgb(47,47,47)" stroke-width="1" opacity="1" d="M 374.5 435 Q 378.3 434.3 379 436.5 Q 380.5 440.9 377.5 440 L 374.5 441 Q 372.3 440.3 373 436.5 L 374.5 435 Z " /><path fill="rgb(47,47,47)" stroke="rgb(47,47,47)" stroke-width="1" opacity="1" d="M 458.5 445 L 469.5 445 Q 477.8 446.7 482 452.5 Q 487.8 458.2 486 471.5 Q 483.9 479.9 477.5 484 L 471.5 487 L 460.5 488 Q 450.1 485.9 445 478.5 Q 440.5 473 442 461.5 Q 443.4 453.9 448.5 450 L 458.5 445 Z M 459 449 L 455 451 L 448 458 L 446 466 L 447 473 L 449 477 Q 453 482 461 484 Q 470 485 475 481 L 479 477 L 482 468 L 480 458 L 477 453 L 470 449 L 459 449 Z " /><path fill="rgb(47,47,47)" stroke="rgb(47,47,47)" stroke-width="1" opacity="1" d="M 506.5 445 Q 518.9 443.1 524 448.5 L 522.5 451 L 517.5 449 L 507.5 449 L 503 452.5 Q 502.4 457.9 504 460 L 508.5 462 L 519.5 464 L 526 469.5 L 527 478.5 L 522.5 485 L 514.5 488 L 507.5 488 L 497 485 L 498 481 L 508.5 484 L 514.5 484 L 521 480.5 L 522 471.5 L 517.5 468 L 506.5 466 L 499 460.5 L 498 454.5 L 502.5 447 L 506.5 445 Z " /><path fill="rgb(47,47,47)" stroke="rgb(47,47,47)" stroke-width="1" opacity="1" d="M 48 446 L 52 446.5 L 52 463 L 77 463 L 77 446.5 L 81 446 L 81 486.5 L 77 487 L 77 467 L 52 467 L 52 486.5 L 48 487 L 48 446 Z " /><path fill="rgb(47,47,47)" stroke="rgb(47,47,47)" stroke-width="1" opacity="1" d="M 95 446 L 100 446.5 L 100 473.5 Q 101.5 480 106.5 483 L 115.5 484 L 123 478.5 L 125 473.5 L 125 446 L 130 446.5 L 130 471.5 L 128 479.5 L 124.5 484 Q 119.7 488.7 109.5 488 Q 102.8 486.8 99 482.5 L 95 471.5 L 95 446 Z " /><path fill="rgb(47,47,47)" stroke="rgb(47,47,47)" stroke-width="1" opacity="1" d="M 144 446 L 148 446.5 L 148 467.5 L 149.5 468 L 170.5 446 L 175 446.5 L 160 462.5 L 178 486.5 L 172 487 L 158 466 L 148 473.5 L 148 486.5 L 144 487 L 144 446 Z " /><path fill="rgb(47,47,47)" stroke="rgb(47,47,47)" stroke-width="1" opacity="1" d="M 189 446 L 193 446.5 L 193 472.5 Q 193.9 479.1 198.5 482 Q 201.8 484.7 208.5 484 L 216 479.5 L 218 475.5 Q 216.5 470 219 468.5 L 219 446 L 223 446.5 L 223 474.5 Q 221.5 481.4 216.5 485 L 208.5 488 L 202.5 488 Q 194.4 486.6 191 480.5 L 189 475.5 L 189 446 Z " /><path fill="rgb(47,47,47)" stroke="rgb(47,47,47)" stroke-width="1" opacity="1" d="M 237 446 L 242 446.5 L 242 467.5 L 253 457.5 L 263.5 446 L 269 446.5 L 254 461.5 L 254 463.5 L 272 486.5 L 266.5 487 L 250.5 466 L 242 473.5 L 242 487 L 237 487 L 237 446 Z " /><path fill="rgb(47,47,47)" stroke="rgb(47,47,47)" stroke-width="1" opacity="1" d="M 308 446 L 328.5 446 L 335 450.5 L 336 458.5 L 332 464.5 L 338 469.5 L 339 477.5 L 333.5 485 L 328.5 487 L 308 487 L 308 446 Z M 313 449 L 313 463 L 328 463 L 332 457 L 331 453 L 326 449 L 313 449 Z M 313 467 L 313 483 L 328 483 L 331 482 L 334 479 L 335 475 L 333 470 L 329 467 L 313 467 Z " /><path fill="rgb(47,47,47)" stroke="rgb(47,47,47)" stroke-width="1" opacity="1" d="M 352 446 L 356 446.5 L 356 471.5 L 359 479.5 L 361.5 482 Q 364.8 484.7 371.5 484 L 379 479.5 L 382 469.5 L 382 446 L 386 446.5 L 386 474.5 Q 384.4 481.4 379.5 485 L 371.5 488 L 366.5 488 L 359.5 486 L 354 480.5 L 352 475.5 L 352 446 Z " /><path fill="rgb(47,47,47)" stroke="rgb(47,47,47)" stroke-width="1" opacity="1" d="M 400 446 L 421.5 446 L 429 451.5 L 430 460.5 L 425.5 466 L 421 468.5 L 433 486.5 L 427 487 L 417 469 L 405 469 L 405 486.5 L 400 487 L 400 446 Z M 405 449 L 405 465 Q 416 466 423 463 L 426 459 L 425 454 L 422 450 L 405 449 Z " /><path fill="rgb(47,47,47)" stroke="rgb(47,47,47)" stroke-width="1" opacity="1" d="M 539 446 L 544 446.5 L 544 474.5 L 547 481 L 553.5 484 L 559.5 484 L 567 478.5 L 569 472.5 L 569 446 L 573 446.5 L 573 475.5 Q 571.2 482.7 565.5 486 L 559.5 488 L 553.5 488 Q 545.7 486.8 542 481.5 L 539 473.5 L 539 446 Z " /><path fill="rgb(254,254,254)" stroke="rgb(254,254,254)" stroke-width="1" opacity="1" d="M 720 0 L 725 0.5 L 725 496 L 720 495.5 L 720 0 Z " /><path fill="rgb(254,254,254)" stroke="rgb(254,254,254)" stroke-width="1" opacity="1" d="M 233 7 L 311 7 L 311 197.5 L 310 197.5 L 310 8 L 234 8 L 233.5 129 L 233 7 Z " /><path fill="rgb(254,254,254)" stroke="rgb(254,254,254)" stroke-width="1" opacity="1" d="M 378.5 7 L 387 7.5 L 378.5 8 L 378.5 7 Z " /><path fill="rgb(254,254,254)" stroke="rgb(254,254,254)" stroke-width="1" opacity="1" d="M 242 16 L 301.5 16 L 302 16.5 L 302 197.5 L 301 197.5 L 301 17.5 L 300.5 17 L 243 17 L 242.5 124 L 242 16 Z " /><path fill="rgb(254,254,254)" stroke="rgb(254,254,254)" stroke-width="1" opacity="1" d="M 377.5 130 L 378 133.5 L 377 133.5 L 377.5 130 Z " /><path fill="rgb(254,254,254)" stroke="rgb(254,254,254)" stroke-width="1" opacity="1" d="M 386.5 130 L 387 134.5 L 386 134.5 L 386.5 130 Z " /><path fill="rgb(254,254,254)" stroke="rgb(254,254,254)" stroke-width="1" opacity="1" d="M 243.5 132 L 244 135.5 L 243 135.5 L 243.5 132 Z " /><path fill="rgb(254,254,254)" stroke="rgb(254,254,254)" stroke-width="1" opacity="1" d="M 234.5 135 L 235 137.5 L 234 137.5 L 234.5 135 Z " /><path fill="rgb(254,254,254)" stroke="rgb(254,254,254)" stroke-width="1" opacity="1" d="M 376.5 137 L 377 139.5 L 376 139.5 L 376.5 137 Z " /><path fill="rgb(254,254,254)" stroke="rgb(254,254,254)" stroke-width="1" opacity="1" d="M 385.5 138 L 386 140.5 L 385 140.5 L 385.5 138 Z " /><path fill="rgb(254,254,254)" stroke="rgb(254,254,254)" stroke-width="1" opacity="1" d="M 242.5 163 L 246 169.5 L 244 168.5 L 242.5 163 Z " /><path fill="rgb(254,254,254)" stroke="rgb(254,254,254)" stroke-width="1" opacity="1" d="M 366.5 166 L 366 167.5 L 364.5 170 L 365 168.5 L 366.5 166 Z " /><path fill="rgb(254,254,254)" stroke="rgb(254,254,254)" stroke-width="1" opacity="1" d="M 254.5 167 L 255.5 169 L 254.5 167 Z " /><path fill="rgb(254,254,254)" stroke="rgb(254,254,254)" stroke-width="1" opacity="1" d="M 256.5 170 L 258.5 173 L 256.5 170 Z " /><path fill="rgb(254,254,254)" stroke="rgb(254,254,254)" stroke-width="1" opacity="1" d="M 363.5 171 L 361.5 174 L 363.5 171 Z " /><path fill="rgb(254,254,254)" stroke="rgb(254,254,254)" stroke-width="1" opacity="1" d="M 374.5 171 L 373.5 173 L 374.5 171 Z " /><path fill="rgb(254,254,254)" stroke="rgb(254,254,254)" stroke-width="1" opacity="1" d="M 247.5 173 L 248.5 175 L 247.5 173 Z " /><path fill="rgb(254,254,254)" stroke="rgb(254,254,254)" stroke-width="1" opacity="1" d="M 259.5 174 L 269.5 185 L 259.5 174 Z " /><path fill="rgb(254,254,254)" stroke="rgb(254,254,254)" stroke-width="1" opacity="1" d="M 372.5 174 L 371.5 176 L 372.5 174 Z " /><path fill="rgb(254,254,254)" stroke="rgb(254,254,254)" stroke-width="1" opacity="1" d="M 249.5 176 L 250.5 178 L 249.5 176 Z " /><path fill="rgb(254,254,254)" stroke="rgb(254,254,254)" stroke-width="1" opacity="1" d="M 359.5 176 L 353.5 183 L 359.5 176 Z " /><path fill="rgb(254,254,254)" stroke="rgb(254,254,254)" stroke-width="1" opacity="1" d="M 370.5 177 L 368.5 180 L 370.5 177 Z " /><path fill="rgb(254,254,254)" stroke="rgb(254,254,254)" stroke-width="1" opacity="1" d="M 252.5 180 L 263.5 192 L 252.5 180 Z " /><path fill="rgb(254,254,254)" stroke="rgb(254,254,254)" stroke-width="1" opacity="1" d="M 367.5 181 L 359.5 190 L 367.5 181 Z " /><path fill="rgb(254,254,254)" stroke="rgb(254,254,254)" stroke-width="1" opacity="1" d="M 350.5 184 L 348.5 187 L 350.5 184 Z " /><path fill="rgb(254,254,254)" stroke="rgb(254,254,254)" stroke-width="1" opacity="1" d="M 271.5 185 L 272.5 187 L 271.5 185 Z " /><path fill="rgb(254,254,254)" stroke="rgb(254,254,254)" stroke-width="1" opacity="1" d="M 274.5 187 L 275.5 189 L 274.5 187 Z " /><path fill="rgb(254,254,254)" stroke="rgb(254,254,254)" stroke-width="1" opacity="1" d="M 346.5 187 L 345.5 189 L 343.5 190 L 344.5 188 L 346.5 187 Z " /><path fill="rgb(254,254,254)" stroke="rgb(254,254,254)" stroke-width="1" opacity="1" d="M 277.5 189 L 284 192.5 L 282.5 193 Q 277.9 191.8 277.5 189 Z " /><path fill="rgb(254,254,254)" stroke="rgb(254,254,254)" stroke-width="1" opacity="1" d="M 357.5 190 L 355.5 193 L 357.5 190 Z " /><path fill="rgb(254,254,254)" stroke="rgb(254,254,254)" stroke-width="1" opacity="1" d="M 265.5 192 L 270 195.5 L 268.5 195 L 265.5 192 Z " /><path fill="rgb(254,254,254)" stroke="rgb(254,254,254)" stroke-width="1" opacity="1" d="M 353.5 193 L 352.5 195 L 353.5 193 Z " /><path fill="rgb(254,254,254)" stroke="rgb(254,254,254)" stroke-width="1" opacity="1" d="M 350.5 195 L 349.5 197 L 350.5 195 Z " /><path fill="rgb(254,254,254)" stroke="rgb(254,254,254)" stroke-width="1" opacity="1" d="M 271.5 196 L 275 198.5 L 273.5 198 L 271.5 196 Z " /><path fill="rgb(254,254,254)" stroke="rgb(254,254,254)" stroke-width="1" opacity="1" d="M 313.5 197 L 319 197.5 L 313.5 198 L 313.5 197 Z " /><path fill="rgb(254,254,254)" stroke="rgb(254,254,254)" stroke-width="1" opacity="1" d="M 290.5 204 L 293 204.5 L 290.5 205 L 290.5 204 Z " /><path fill="rgb(254,254,254)" stroke="rgb(254,254,254)" stroke-width="1" opacity="1" d="M 296.5 205 L 299 205.5 L 296.5 206 L 296.5 205 Z " /><path fill="rgb(254,254,254)" stroke="rgb(254,254,254)" stroke-width="1" opacity="1" d="M 322.5 205 L 325 205.5 L 322.5 206 L 322.5 205 Z " /><path fill="rgb(254,254,254)" stroke="rgb(254,254,254)" stroke-width="1" opacity="1" d="M 305.5 206 L 315 206.5 L 305.5 207 L 305.5 206 Z " /><path fill="rgb(254,254,254)" stroke="rgb(254,254,254)" stroke-width="1" opacity="1" d="M 1237.5 265 L 1242 268.5 L 1241.5 270 L 1238.5 266 L 1237.5 265 Z " /><path fill="rgb(254,254,254)" stroke="rgb(254,254,254)" stroke-width="1" opacity="1" d="M 1229.5 266 L 1228.5 268 L 1229.5 266 Z " /><path fill="rgb(254,254,254)" stroke="rgb(254,254,254)" stroke-width="1" opacity="1" d="M 345.5 271 L 358 271.5 L 345.5 272 L 345.5 271 Z " /><path fill="rgb(254,254,254)" stroke="rgb(254,254,254)" stroke-width="1" opacity="1" d="M 461.5 271 L 474 271.5 L 461.5 272 L 461.5 271 Z " /><path fill="rgb(254,254,254)" stroke="rgb(254,254,254)" stroke-width="1" opacity="1" d="M 1619.5 271 L 1632 271.5 L 1619.5 272 L 1619.5 271 Z " /><path fill="rgb(254,254,254)" stroke="rgb(254,254,254)" stroke-width="1" opacity="1" d="M 1705.5 271 L 1718 271.5 L 1705.5 272 L 1705.5 271 Z " /><path fill="rgb(254,254,254)" stroke="rgb(254,254,254)" stroke-width="1" opacity="1" d="M 1699.5 272 L 1702 272.5 L 1699.5 273 L 1699.5 272 Z " /><path fill="rgb(254,254,254)" stroke="rgb(254,254,254)" stroke-width="1" opacity="1" d="M 65.5 273 L 66 326.5 L 65 326.5 L 65.5 273 Z " /><path fill="rgb(254,254,254)" stroke="rgb(254,254,254)" stroke-width="1" opacity="1" d="M 121.5 273 L 122 356.5 L 121 356.5 L 121.5 273 Z " /><path fill="rgb(254,254,254)" stroke="rgb(254,254,254)" stroke-width="1" opacity="1" d="M 131.5 273 L 132 347.5 L 131 347.5 L 131.5 273 Z " /><path fill="rgb(254,254,254)" stroke="rgb(254,254,254)" stroke-width="1" opacity="1" d="M 209.5 273 L 210 324.5 L 209 324.5 L 209.5 273 Z " /><path fill="rgb(254,254,254)" stroke="rgb(254,254,254)" stroke-width="1" opacity="1" d="M 279.5 273 L 280 322.5 L 279 322.5 L 279.5 273 Z " /><path fill="rgb(254,254,254)" stroke="rgb(254,254,254)" stroke-width="1" opacity="1" d="M 1370.5 273 L 1371 320.5 L 1370 320.5 L 1370.5 273 Z " /><path fill="rgb(254,254,254)" stroke="rgb(254,254,254)" stroke-width="1" opacity="1" d="M 1430.5 273 L 1431 320.5 L 1430 320.5 L 1430.5 273 Z " /><path fill="rgb(254,254,254)" stroke="rgb(254,254,254)" stroke-width="1" opacity="1" d="M 1440.5 273 L 1441 324.5 L 1440 324.5 L 1440.5 273 Z " /><path fill="rgb(254,254,254)" stroke="rgb(254,254,254)" stroke-width="1" opacity="1" d="M 1573.5 273 L 1574 326.5 L 1573 326.5 L 1573.5 273 Z " /><path fill="rgb(254,254,254)" stroke="rgb(254,254,254)" stroke-width="1" opacity="1" d="M 1759.5 273 L 1761 275.5 L 1759 274.5 L 1759.5 273 Z " /><path fill="rgb(254,254,254)" stroke="rgb(254,254,254)" stroke-width="1" opacity="1" d="M 1770.5 273 L 1771.5 275 L 1770.5 273 Z " /><path fill="rgb(254,254,254)" stroke="rgb(254,254,254)" stroke-width="1" opacity="1" d="M 1833.5 273 L 1833 274.5 L 1831.5 277 L 1832 275.5 L 1833.5 273 Z " /><path fill="rgb(254,254,254)" stroke="rgb(254,254,254)" stroke-width="1" opacity="1" d="M 545.5 274 L 548 277.5 L 546 276.5 L 545.5 274 Z " /><path fill="rgb(254,254,254)" stroke="rgb(254,254,254)" stroke-width="1" opacity="1" d="M 1609.5 274 L 1608.5 276 L 1601.5 282 L 1607.5 275 L 1609.5 274 Z " /><path fill="rgb(254,254,254)" stroke="rgb(254,254,254)" stroke-width="1" opacity="1" d="M 1821.5 274 L 1820.5 276 L 1821.5 274 Z " /><path fill="rgb(254,254,254)" stroke="rgb(254,254,254)" stroke-width="1" opacity="1" d="M 333.5 275 L 332.5 277 L 333.5 275 Z " /><path fill="rgb(254,254,254)" stroke="rgb(254,254,254)" stroke-width="1" opacity="1" d="M 446.5 275 L 448 275.5 L 443.5 278 L 444.5 276 L 446.5 275 Z " /><path fill="rgb(254,254,254)" stroke="rgb(254,254,254)" stroke-width="1" opacity="1" d="M 487.5 275 L 490 276.5 L 488.5 276 L 487.5 275 Z " /><path fill="rgb(254,254,254)" stroke="rgb(254,254,254)" stroke-width="1" opacity="1" d="M 557.5 275 L 558.5 277 L 557.5 275 Z " /><path fill="rgb(254,254,254)" stroke="rgb(254,254,254)" stroke-width="1" opacity="1" d="M 374.5 276 L 377 277.5 L 375.5 278 L 374.5 276 Z " /><path fill="rgb(254,254,254)" stroke="rgb(254,254,254)" stroke-width="1" opacity="1" d="M 617.5 276 L 616.5 278 L 617.5 276 Z " /><path fill="rgb(254,254,254)" stroke="rgb(254,254,254)" stroke-width="1" opacity="1" d="M 1734.5 276 L 1738 278.5 L 1736.5 278 L 1734.5 276 Z " /><path fill="rgb(254,254,254)" stroke="rgb(254,254,254)" stroke-width="1" opacity="1" d="M 1772.5 276 L 1773.5 278 L 1772.5 276 Z " /><path fill="rgb(254,254,254)" stroke="rgb(254,254,254)" stroke-width="1" opacity="1" d="M 330.5 277 L 328.5 280 L 330.5 277 Z " /><path fill="rgb(254,254,254)" stroke="rgb(254,254,254)" stroke-width="1" opacity="1" d="M 605.5 277 L 604.5 279 L 605.5 277 Z " /><path fill="rgb(254,254,254)" stroke="rgb(254,254,254)" stroke-width="1" opacity="1" d="M 1228.5 277 L 1229.5 279 L 1228.5 277 Z " /><path fill="rgb(254,254,254)" stroke="rgb(254,254,254)" stroke-width="1" opacity="1" d="M 1240.5 277 L 1239.5 279 L 1240.5 277 Z " /><path fill="rgb(254,254,254)" stroke="rgb(254,254,254)" stroke-width="1" opacity="1" d="M 1650.5 277 L 1651.5 279 L 1650.5 277 Z " /><path fill="rgb(254,254,254)" stroke="rgb(254,254,254)" stroke-width="1" opacity="1" d="M 1761.5 277 L 1762.5 279 L 1761.5 277 Z " /><path fill="rgb(254,254,254)" stroke="rgb(254,254,254)" stroke-width="1" opacity="1" d="M 441.5 278 L 440.5 280 L 441.5 278 Z " /><path fill="rgb(254,254,254)" stroke="rgb(254,254,254)" stroke-width="1" opacity="1" d="M 493.5 278 L 494.5 280 L 493.5 278 Z " /><path fill="rgb(254,254,254)" stroke="rgb(254,254,254)" stroke-width="1" opacity="1" d="M 559.5 278 L 560.5 280 L 559.5 278 Z " /><path fill="rgb(254,254,254)" stroke="rgb(254,254,254)" stroke-width="1" opacity="1" d="M 1685.5 278 L 1683.5 281 L 1685.5 278 Z " /><path fill="rgb(254,254,254)" stroke="rgb(254,254,254)" stroke-width="1" opacity="1" d="M 1830.5 278 L 1829.5 280 L 1830.5 278 Z " /><path fill="rgb(254,254,254)" stroke="rgb(254,254,254)" stroke-width="1" opacity="1" d="M 548.5 279 L 549.5 281 L 548.5 279 Z " /><path fill="rgb(254,254,254)" stroke="rgb(254,254,254)" stroke-width="1" opacity="1" d="M 615.5 279 L 615 280.5 L 613.5 283 L 614 281.5 L 615.5 279 Z " /><path fill="rgb(254,254,254)" stroke="rgb(254,254,254)" stroke-width="1" opacity="1" d="M 1739.5 279 L 1742.5 283 L 1739.5 279 Z " /><path fill="rgb(254,254,254)" stroke="rgb(254,254,254)" stroke-width="1" opacity="1" d="M 1818.5 279 L 1817.5 281 L 1818.5 279 Z " /><path fill="rgb(254,254,254)" stroke="rgb(254,254,254)" stroke-width="1" opacity="1" d="M 356.5 280 L 359 280.5 L 356.5 281 L 356.5 280 Z " /><path fill="rgb(254,254,254)" stroke="rgb(254,254,254)" stroke-width="1" opacity="1" d="M 438.5 280 L 430.5 289 L 438.5 280 Z " /><path fill="rgb(254,254,254)" stroke="rgb(254,254,254)" stroke-width="1" opacity="1" d="M 460.5 280 L 464 280.5 L 460.5 281 L 460.5 280 Z " /><path fill="rgb(254,254,254)" stroke="rgb(254,254,254)" stroke-width="1" opacity="1" d="M 471.5 280 L 474 280.5 L 471.5 281 L 471.5 280 Z " /><path fill="rgb(254,254,254)" stroke="rgb(254,254,254)" stroke-width="1" opacity="1" d="M 496.5 280 L 503.5 288 L 496.5 280 Z " /><path fill="rgb(254,254,254)" stroke="rgb(254,254,254)" stroke-width="1" opacity="1" d="M 1618.5 280 L 1621 280.5 L 1618.5 281 L 1618.5 280 Z " /><path fill="rgb(254,254,254)" stroke="rgb(254,254,254)" stroke-width="1" opacity="1" d="M 1630.5 280 L 1633 280.5 L 1630.5 281 L 1630.5 280 Z " /><path fill="rgb(254,254,254)" stroke="rgb(254,254,254)" stroke-width="1" opacity="1" d="M 1705.5 280 L 1708 280.5 L 1705.5 281 L 1705.5 280 Z " /><path fill="rgb(254,254,254)" stroke="rgb(254,254,254)" stroke-width="1" opacity="1" d="M 1716.5 280 L 1719 280.5 L 1716.5 281 L 1716.5 280 Z " /><path fill="rgb(254,254,254)" stroke="rgb(254,254,254)" stroke-width="1" opacity="1" d="M 1763.5 280 L 1764.5 282 L 1763.5 280 Z " /><path fill="rgb(254,254,254)" stroke="rgb(254,254,254)" stroke-width="1" opacity="1" d="M 327.5 281 L 326.5 283 L 327.5 281 Z " /><path fill="rgb(254,254,254)" stroke="rgb(254,254,254)" stroke-width="1" opacity="1" d="M 1615.5 281 L 1617 281.5 L 1610.5 286 L 1613.5 282 L 1615.5 281 Z " /><path fill="rgb(254,254,254)" stroke="rgb(254,254,254)" stroke-width="1" opacity="1" d="M 1681.5 281 L 1676.5 287 L 1681.5 281 Z " /><path fill="rgb(254,254,254)" stroke="rgb(254,254,254)" stroke-width="1" opacity="1" d="M 1775.5 281 L 1776.5 283 L 1775.5 281 Z " /><path fill="rgb(254,254,254)" stroke="rgb(254,254,254)" stroke-width="1" opacity="1" d="M 1828.5 281 L 1827.5 283 L 1828.5 281 Z " /><path fill="rgb(254,254,254)" stroke="rgb(254,254,254)" stroke-width="1" opacity="1" d="M 339.5 282 L 335.5 287 L 339.5 282 Z " /><path fill="rgb(254,254,254)" stroke="rgb(254,254,254)" stroke-width="1" opacity="1" d="M 550.5 282 L 551.5 284 L 550.5 282 Z " /><path fill="rgb(254,254,254)" stroke="rgb(254,254,254)" stroke-width="1" opacity="1" d="M 602.5 282 L 601.5 284 L 602.5 282 Z " /><path fill="rgb(254,254,254)" stroke="rgb(254,254,254)" stroke-width="1" opacity="1" d="M 1048.5 282 L 1049 308 L 1085.5 308 L 1087 309.5 L 1087 317.5 L 1086.5 318 L 1049 318 L 1049 347.5 L 1048 347.5 L 1048 317 L 1085.5 317 L 1086 316.5 L 1086 309 L 1048 309 L 1048.5 282 Z " /><path fill="rgb(254,254,254)" stroke="rgb(254,254,254)" stroke-width="1" opacity="1" d="M 1816.5 282 L 1816 283.5 L 1814.5 286 L 1815 284.5 L 1816.5 282 Z " /><path fill="rgb(254,254,254)" stroke="rgb(254,254,254)" stroke-width="1" opacity="1" d="M 482.5 283 L 487 285.5 L 485.5 285 Q 481.7 284.7 482.5 283 Z " /><path fill="rgb(254,254,254)" stroke="rgb(254,254,254)" stroke-width="1" opacity="1" d="M 562.5 283 L 563.5 285 L 562.5 283 Z " /><path fill="rgb(254,254,254)" stroke="rgb(254,254,254)" stroke-width="1" opacity="1" d="M 859 283 L 862 284.5 L 859 284.5 L 859 283 Z " /><path fill="rgb(254,254,254)" stroke="rgb(254,254,254)" stroke-width="1" opacity="1" d="M 1695.5 283 L 1697 283.5 L 1694.5 285 L 1695.5 283 Z " /><path fill="rgb(254,254,254)" stroke="rgb(254,254,254)" stroke-width="1" opacity="1" d="M 449.5 284 L 448.5 286 L 449.5 284 Z " /><path fill="rgb(254,254,254)" stroke="rgb(254,254,254)" stroke-width="1" opacity="1" d="M 612.5 284 L 611.5 286 L 612.5 284 Z " /><path fill="rgb(254,254,254)" stroke="rgb(254,254,254)" stroke-width="1" opacity="1" d="M 1648.5 284 L 1647.5 286 L 1648.5 284 Z " /><path fill="rgb(254,254,254)" stroke="rgb(254,254,254)" stroke-width="1" opacity="1" d="M 1729.5 284 L 1730.5 286 L 1729.5 284 Z " /><path fill="rgb(254,254,254)" stroke="rgb(254,254,254)" stroke-width="1" opacity="1" d="M 1744.5 284 L 1748.5 289 L 1744.5 284 Z " /><path fill="rgb(254,254,254)" stroke="rgb(254,254,254)" stroke-width="1" opacity="1" d="M 1777.5 284 L 1778.5 286 L 1777.5 284 Z " /><path fill="rgb(254,254,254)" stroke="rgb(254,254,254)" stroke-width="1" opacity="1" d="M 600.5 285 L 599.5 287 L 600.5 285 Z " /><path fill="rgb(254,254,254)" stroke="rgb(254,254,254)" stroke-width="1" opacity="1" d="M 1692.5 285 L 1691.5 287 L 1692.5 285 Z " /><path fill="rgb(254,254,254)" stroke="rgb(254,254,254)" stroke-width="1" opacity="1" d="M 1766.5 285 L 1767.5 287 L 1766.5 285 Z " /><path fill="rgb(254,254,254)" stroke="rgb(254,254,254)" stroke-width="1" opacity="1" d="M 446.5 286 L 443.5 290 L 446.5 286 Z " /><path fill="rgb(254,254,254)" stroke="rgb(254,254,254)" stroke-width="1" opacity="1" d="M 488.5 286 L 495.5 294 L 488.5 286 Z " /><path fill="rgb(254,254,254)" stroke="rgb(254,254,254)" stroke-width="1" opacity="1" d="M 564.5 286 L 565.5 288 L 564.5 286 Z " /><path fill="rgb(254,254,254)" stroke="rgb(254,254,254)" stroke-width="1" opacity="1" d="M 1732.5 286 L 1734.5 289 L 1732.5 286 Z " /><path fill="rgb(254,254,254)" stroke="rgb(254,254,254)" stroke-width="1" opacity="1" d="M 1825.5 286 L 1824.5 288 L 1825.5 286 Z " /><path fill="rgb(254,254,254)" stroke="rgb(254,254,254)" stroke-width="1" opacity="1" d="M 553.5 287 L 554.5 289 L 553.5 287 Z " /><path fill="rgb(254,254,254)" stroke="rgb(254,254,254)" stroke-width="1" opacity="1" d="M 610.5 287 L 610 288.5 L 608.5 291 L 609 289.5 L 610.5 287 Z " /><path fill="rgb(254,254,254)" stroke="rgb(254,254,254)" stroke-width="1" opacity="1" d="M 1609.5 287 L 1609 288.5 L 1608.5 290 L 1608 288.5 L 1609.5 287 Z " /><path fill="rgb(254,254,254)" stroke="rgb(254,254,254)" stroke-width="1" opacity="1" d="M 1689.5 287 L 1683.5 294 L 1689.5 287 Z " /><path fill="rgb(254,254,254)" stroke="rgb(254,254,254)" stroke-width="1" opacity="1" d="M 1813.5 287 L 1812.5 289 L 1813.5 287 Z " /><path fill="rgb(254,254,254)" stroke="rgb(254,254,254)" stroke-width="1" opacity="1" d="M 1598.5 288 L 1599 290.5 L 1598 290.5 L 1598.5 288 Z " /><path fill="rgb(254,254,254)" stroke="rgb(254,254,254)" stroke-width="1" opacity="1" d="M 1675.5 288 L 1673.5 291 L 1675.5 288 Z " /><path fill="rgb(254,254,254)" stroke="rgb(254,254,254)" stroke-width="1" opacity="1" d="M 1768.5 288 L 1769.5 290 L 1768.5 288 Z " /><path fill="rgb(254,254,254)" stroke="rgb(254,254,254)" stroke-width="1" opacity="1" d="M 504.5 289 L 505.5 291 L 504.5 289 Z " /><path fill="rgb(254,254,254)" stroke="rgb(254,254,254)" stroke-width="1" opacity="1" d="M 1780.5 289 L 1781.5 291 L 1780.5 289 Z " /><path fill="rgb(254,254,254)" stroke="rgb(254,254,254)" stroke-width="1" opacity="1" d="M 1823.5 289 L 1822.5 291 L 1823.5 289 Z " /><path fill="rgb(254,254,254)" stroke="rgb(254,254,254)" stroke-width="1" opacity="1" d="M 333.5 290 L 334 295.5 L 333 295.5 L 333.5 290 Z " /><path fill="rgb(254,254,254)" stroke="rgb(254,254,254)" stroke-width="1" opacity="1" d="M 429.5 290 L 428.5 292 L 429.5 290 Z " /><path fill="rgb(254,254,254)" stroke="rgb(254,254,254)" stroke-width="1" opacity="1" d="M 555.5 290 L 556.5 292 L 555.5 290 Z " /><path fill="rgb(254,254,254)" stroke="rgb(254,254,254)" stroke-width="1" opacity="1" d="M 597.5 290 L 596.5 292 L 597.5 290 Z " /><path fill="rgb(254,254,254)" stroke="rgb(254,254,254)" stroke-width="1" opacity="1" d="M 1749.5 290 L 1750.5 292 L 1749.5 290 Z " /><path fill="rgb(254,254,254)" stroke="rgb(254,254,254)" stroke-width="1" opacity="1" d="M 441.5 291 L 438.5 295 L 441.5 291 Z " /><path fill="rgb(254,254,254)" stroke="rgb(254,254,254)" stroke-width="1" opacity="1" d="M 567.5 291 L 568.5 293 L 567.5 291 Z " /><path fill="rgb(254,254,254)" stroke="rgb(254,254,254)" stroke-width="1" opacity="1" d="M 1132.5 291 L 1135 291.5 L 1132.5 292 L 1132.5 291 Z " /><path fill="rgb(254,254,254)" stroke="rgb(254,254,254)" stroke-width="1" opacity="1" d="M 1145.5 291 L 1148 291.5 L 1145.5 292 L 1145.5 291 Z " /><path fill="rgb(254,254,254)" stroke="rgb(254,254,254)" stroke-width="1" opacity="1" d="M 1180.5 291 L 1183 291.5 L 1180.5 292 L 1180.5 291 Z " /><path fill="rgb(254,254,254)" stroke="rgb(254,254,254)" stroke-width="1" opacity="1" d="M 1282.5 291 L 1285 291.5 L 1282.5 292 L 1282.5 291 Z " /><path fill="rgb(254,254,254)" stroke="rgb(254,254,254)" stroke-width="1" opacity="1" d="M 1296.5 291 L 1299 291.5 L 1296.5 292 L 1296.5 291 Z " /><path fill="rgb(254,254,254)" stroke="rgb(254,254,254)" stroke-width="1" opacity="1" d="M 1770.5 291 L 1773 294.5 L 1771 293.5 L 1770.5 291 Z " /><path fill="rgb(254,254,254)" stroke="rgb(254,254,254)" stroke-width="1" opacity="1" d="M 506.5 292 L 509 296.5 L 508 296.5 L 506.5 292 Z " /><path fill="rgb(254,254,254)" stroke="rgb(254,254,254)" stroke-width="1" opacity="1" d="M 607.5 292 L 606.5 294 L 607.5 292 Z " /><path fill="rgb(254,254,254)" stroke="rgb(254,254,254)" stroke-width="1" opacity="1" d="M 1106.5 292 L 1107 356.5 L 1106 356.5 L 1106.5 292 Z " /><path fill="rgb(254,254,254)" stroke="rgb(254,254,254)" stroke-width="1" opacity="1" d="M 1114.5 292 L 1115 295.5 L 1114 295.5 L 1114.5 292 Z " /><path fill="rgb(254,254,254)" stroke="rgb(254,254,254)" stroke-width="1" opacity="1" d="M 1239.5 292 L 1240 356.5 L 1239 356.5 L 1239.5 292 Z " /><path fill="rgb(254,254,254)" stroke="rgb(254,254,254)" stroke-width="1" opacity="1" d="M 1255.5 292 L 1256 356.5 L 1255 356.5 L 1255.5 292 Z " /><path fill="rgb(254,254,254)" stroke="rgb(254,254,254)" stroke-width="1" opacity="1" d="M 1738.5 292 L 1740.5 295 L 1738.5 292 Z " /><path fill="rgb(254,254,254)" stroke="rgb(254,254,254)" stroke-width="1" opacity="1" d="M 1782.5 292 L 1783.5 294 L 1782.5 292 Z " /><path fill="rgb(254,254,254)" stroke="rgb(254,254,254)" stroke-width="1" opacity="1" d="M 1810.5 292 L 1809.5 294 L 1810.5 292 Z " /><path fill="rgb(254,254,254)" stroke="rgb(254,254,254)" stroke-width="1" opacity="1" d="M 557.5 293 L 558.5 295 L 557.5 293 Z " /><path fill="rgb(254,254,254)" stroke="rgb(254,254,254)" stroke-width="1" opacity="1" d="M 875.5 293 L 877 296.5 L 876 296.5 L 875.5 293 Z " /><path fill="rgb(254,254,254)" stroke="rgb(254,254,254)" stroke-width="1" opacity="1" d="M 1303.5 293 L 1306 294.5 L 1304.5 294 L 1303.5 293 Z " /><path fill="rgb(254,254,254)" stroke="rgb(254,254,254)" stroke-width="1" opacity="1" d="M 569.5 294 L 570.5 296 L 569.5 294 Z " /><path fill="rgb(254,254,254)" stroke="rgb(254,254,254)" stroke-width="1" opacity="1" d="M 1154.5 294 L 1160.5 301 L 1154.5 294 Z " /><path fill="rgb(254,254,254)" stroke="rgb(254,254,254)" stroke-width="1" opacity="1" d="M 1172.5 294 L 1171.5 296 L 1168.5 298 L 1170.5 295 L 1172.5 294 Z " /><path fill="rgb(254,254,254)" stroke="rgb(254,254,254)" stroke-width="1" opacity="1" d="M 1203.5 294 L 1204.5 296 L 1203.5 294 Z " /><path fill="rgb(254,254,254)" stroke="rgb(254,254,254)" stroke-width="1" opacity="1" d="M 1820.5 294 L 1819.5 296 L 1820.5 294 Z " /><path fill="rgb(254,254,254)" stroke="rgb(254,254,254)" stroke-width="1" opacity="1" d="M 496.5 295 L 497.5 297 L 496.5 295 Z " /><path fill="rgb(254,254,254)" stroke="rgb(254,254,254)" stroke-width="1" opacity="1" d="M 594.5 295 L 593.5 297 L 594.5 295 Z " /><path fill="rgb(254,254,254)" stroke="rgb(254,254,254)" stroke-width="1" opacity="1" d="M 605.5 295 L 604.5 297 L 605.5 295 Z " /><path fill="rgb(254,254,254)" stroke="rgb(254,254,254)" stroke-width="1" opacity="1" d="M 1123.5 295 L 1122.5 297 L 1123.5 295 Z " /><path fill="rgb(254,254,254)" stroke="rgb(254,254,254)" stroke-width="1" opacity="1" d="M 1272.5 295 L 1271.5 297 L 1272.5 295 Z " /><path fill="rgb(254,254,254)" stroke="rgb(254,254,254)" stroke-width="1" opacity="1" d="M 1307.5 295 L 1315 303.5 L 1313 302.5 L 1307.5 295 Z " /><path fill="rgb(254,254,254)" stroke="rgb(254,254,254)" stroke-width="1" opacity="1" d="M 1682.5 295 L 1681.5 297 L 1682.5 295 Z " /><path fill="rgb(254,254,254)" stroke="rgb(254,254,254)" stroke-width="1" opacity="1" d="M 1808.5 295 L 1808 296.5 L 1806.5 299 L 1807 297.5 L 1808.5 295 Z " /><path fill="rgb(254,254,254)" stroke="rgb(254,254,254)" stroke-width="1" opacity="1" d="M 1206.5 296 L 1207.5 298 L 1206.5 296 Z " /><path fill="rgb(254,254,254)" stroke="rgb(254,254,254)" stroke-width="1" opacity="1" d="M 1741.5 296 L 1744 300.5 L 1743 300.5 L 1741.5 296 Z " /><path fill="rgb(254,254,254)" stroke="rgb(254,254,254)" stroke-width="1" opacity="1" d="M 1773.5 296 L 1774.5 298 L 1773.5 296 Z " /><path fill="rgb(254,254,254)" stroke="rgb(254,254,254)" stroke-width="1" opacity="1" d="M 334.5 297 L 339.5 303 L 343 304.5 L 341.5 305 L 334 298.5 L 334.5 297 Z " /><path fill="rgb(254,254,254)" stroke="rgb(254,254,254)" stroke-width="1" opacity="1" d="M 1120.5 297 L 1116.5 302 L 1120.5 297 Z " /><path fill="rgb(254,254,254)" stroke="rgb(254,254,254)" stroke-width="1" opacity="1" d="M 1264.5 297 L 1266 302.5 L 1264 301.5 L 1264.5 297 Z " /><path fill="rgb(254,254,254)" stroke="rgb(254,254,254)" stroke-width="1" opacity="1" d="M 1269.5 297 L 1266.5 301 L 1269.5 297 Z " /><path fill="rgb(254,254,254)" stroke="rgb(254,254,254)" stroke-width="1" opacity="1" d="M 1785.5 297 L 1786.5 299 L 1785.5 297 Z " /><path fill="rgb(254,254,254)" stroke="rgb(254,254,254)" stroke-width="1" opacity="1" d="M 1818.5 297 L 1817.5 299 L 1818.5 297 Z " /><path fill="rgb(254,254,254)" stroke="rgb(254,254,254)" stroke-width="1" opacity="1" d="M 560.5 298 L 561.5 300 L 560.5 298 Z " /><path fill="rgb(254,254,254)" stroke="rgb(254,254,254)" stroke-width="1" opacity="1" d="M 592.5 298 L 591.5 300 L 592.5 298 Z " /><path fill="rgb(254,254,254)" stroke="rgb(254,254,254)" stroke-width="1" opacity="1" d="M 1166.5 298 L 1162.5 303 L 1161 302.5 L 1166.5 298 Z " /><path fill="rgb(254,254,254)" stroke="rgb(254,254,254)" stroke-width="1" opacity="1" d="M 572.5 299 L 573.5 301 L 572.5 299 Z " /><path fill="rgb(254,254,254)" stroke="rgb(254,254,254)" stroke-width="1" opacity="1" d="M 1136.5 299 L 1143 299.5 L 1136.5 300 L 1136.5 299 Z " /><path fill="rgb(254,254,254)" stroke="rgb(254,254,254)" stroke-width="1" opacity="1" d="M 1184.5 299 L 1192 299.5 L 1184.5 300 L 1184.5 299 Z " /><path fill="rgb(254,254,254)" stroke="rgb(254,254,254)" stroke-width="1" opacity="1" d="M 1208.5 299 L 1209.5 301 L 1208.5 299 Z " /><path fill="rgb(254,254,254)" stroke="rgb(254,254,254)" stroke-width="1" opacity="1" d="M 1286.5 299 L 1294 299.5 L 1286.5 300 L 1286.5 299 Z " /><path fill="rgb(254,254,254)" stroke="rgb(254,254,254)" stroke-width="1" opacity="1" d="M 1609.5 299 L 1612.5 303 L 1609.5 299 Z " /><path fill="rgb(254,254,254)" stroke="rgb(254,254,254)" stroke-width="1" opacity="1" d="M 1775.5 299 L 1776.5 301 L 1775.5 299 Z " /><path fill="rgb(254,254,254)" stroke="rgb(254,254,254)" stroke-width="1" opacity="1" d="M 602.5 300 L 601.5 302 L 602.5 300 Z " /><path fill="rgb(254,254,254)" stroke="rgb(254,254,254)" stroke-width="1" opacity="1" d="M 878.5 300 L 880 303.5 L 879 303.5 L 878.5 300 Z " /><path fill="rgb(254,254,254)" stroke="rgb(254,254,254)" stroke-width="1" opacity="1" d="M 967.5 300 L 968 301.5 L 966.5 304 L 966 302.5 L 967.5 300 Z " /><path fill="rgb(254,254,254)" stroke="rgb(254,254,254)" stroke-width="1" opacity="1" d="M 1787.5 300 L 1788.5 302 L 1787.5 300 Z " /><path fill="rgb(254,254,254)" stroke="rgb(254,254,254)" stroke-width="1" opacity="1" d="M 1805.5 300 L 1804.5 302 L 1805.5 300 Z " /><path fill="rgb(254,254,254)" stroke="rgb(254,254,254)" stroke-width="1" opacity="1" d="M 1816.5 300 L 1816 301.5 L 1814.5 304 L 1815 302.5 L 1816.5 300 Z " /><path fill="rgb(254,254,254)" stroke="rgb(254,254,254)" stroke-width="1" opacity="1" d="M 562.5 301 L 563.5 303 L 562.5 301 Z " /><path fill="rgb(254,254,254)" stroke="rgb(254,254,254)" stroke-width="1" opacity="1" d="M 1148.5 301 L 1152.5 306 L 1148.5 301 Z " /><path fill="rgb(254,254,254)" stroke="rgb(254,254,254)" stroke-width="1" opacity="1" d="M 574.5 302 L 575.5 304 L 574.5 302 Z " /><path fill="rgb(254,254,254)" stroke="rgb(254,254,254)" stroke-width="1" opacity="1" d="M 1301.5 302 L 1304.5 306 L 1301.5 302 Z " /><path fill="rgb(254,254,254)" stroke="rgb(254,254,254)" stroke-width="1" opacity="1" d="M 589.5 303 L 588.5 305 L 589.5 303 Z " /><path fill="rgb(254,254,254)" stroke="rgb(254,254,254)" stroke-width="1" opacity="1" d="M 600.5 303 L 599.5 305 L 600.5 303 Z " /><path fill="rgb(254,254,254)" stroke="rgb(254,254,254)" stroke-width="1" opacity="1" d="M 1173.5 303 L 1171.5 306 L 1173.5 303 Z " /><path fill="rgb(254,254,254)" stroke="rgb(254,254,254)" stroke-width="1" opacity="1" d="M 1274.5 303 L 1272.5 306 L 1274.5 303 Z " /><path fill="rgb(254,254,254)" stroke="rgb(254,254,254)" stroke-width="1" opacity="1" d="M 1755.5 303 L 1756 305.5 L 1755 305.5 L 1755.5 303 Z " /><path fill="rgb(254,254,254)" stroke="rgb(254,254,254)" stroke-width="1" opacity="1" d="M 564.5 304 L 567 307.5 L 565 306.5 L 564.5 304 Z " /><path fill="rgb(254,254,254)" stroke="rgb(254,254,254)" stroke-width="1" opacity="1" d="M 1123.5 304 L 1118.5 310 L 1123.5 304 Z " /><path fill="rgb(254,254,254)" stroke="rgb(254,254,254)" stroke-width="1" opacity="1" d="M 1778.5 304 L 1779.5 306 L 1778.5 304 Z " /><path fill="rgb(254,254,254)" stroke="rgb(254,254,254)" stroke-width="1" opacity="1" d="M 511.5 305 L 512 307.5 L 511 307.5 L 511.5 305 Z " /><path fill="rgb(254,254,254)" stroke="rgb(254,254,254)" stroke-width="1" opacity="1" d="M 1200.5 305 L 1202 307.5 L 1201 307.5 L 1200.5 305 Z " /><path fill="rgb(254,254,254)" stroke="rgb(254,254,254)" stroke-width="1" opacity="1" d="M 1601.5 305 L 1611 312.5 L 1609.5 313 L 1601.5 305 Z " /><path fill="rgb(254,254,254)" stroke="rgb(254,254,254)" stroke-width="1" opacity="1" d="M 1667.5 305 L 1668 307.5 L 1667 307.5 L 1667.5 305 Z " /><path fill="rgb(254,254,254)" stroke="rgb(254,254,254)" stroke-width="1" opacity="1" d="M 1790.5 305 L 1791.5 307 L 1790.5 305 Z " /><path fill="rgb(254,254,254)" stroke="rgb(254,254,254)" stroke-width="1" opacity="1" d="M 1802.5 305 L 1801.5 307 L 1802.5 305 Z " /><path fill="rgb(254,254,254)" stroke="rgb(254,254,254)" stroke-width="1" opacity="1" d="M 1813.5 305 L 1812.5 307 L 1813.5 305 Z " /><path fill="rgb(254,254,254)" stroke="rgb(254,254,254)" stroke-width="1" opacity="1" d="M 327.5 306 L 330.5 310 L 327.5 306 Z " /><path fill="rgb(254,254,254)" stroke="rgb(254,254,254)" stroke-width="1" opacity="1" d="M 348.5 306 L 351 306.5 L 348.5 307 L 348.5 306 Z " /><path fill="rgb(254,254,254)" stroke="rgb(254,254,254)" stroke-width="1" opacity="1" d="M 1169.5 306 L 1167.5 309 L 1169.5 306 Z " /><path fill="rgb(254,254,254)" stroke="rgb(254,254,254)" stroke-width="1" opacity="1" d="M 501.5 307 L 502 309.5 L 501 309.5 L 501.5 307 Z " /><path fill="rgb(254,254,254)" stroke="rgb(254,254,254)" stroke-width="1" opacity="1" d="M 577.5 307 L 578.5 309 L 577.5 307 Z " /><path fill="rgb(254,254,254)" stroke="rgb(254,254,254)" stroke-width="1" opacity="1" d="M 1677.5 307 L 1678 309.5 L 1677 309.5 L 1677.5 307 Z " /><path fill="rgb(254,254,254)" stroke="rgb(254,254,254)" stroke-width="1" opacity="1" d="M 1780.5 307 L 1781.5 309 L 1780.5 307 Z " /><path fill="rgb(254,254,254)" stroke="rgb(254,254,254)" stroke-width="1" opacity="1" d="M 586.5 308 L 585.5 310 L 586.5 308 Z " /><path fill="rgb(254,254,254)" stroke="rgb(254,254,254)" stroke-width="1" opacity="1" d="M 597.5 308 L 596.5 310 L 597.5 308 Z " /><path fill="rgb(254,254,254)" stroke="rgb(254,254,254)" stroke-width="1" opacity="1" d="M 1269.5 308 L 1266.5 312 L 1269.5 308 Z " /><path fill="rgb(254,254,254)" stroke="rgb(254,254,254)" stroke-width="1" opacity="1" d="M 1632.5 308 L 1635 308.5 L 1632.5 309 L 1632.5 308 Z " /><path fill="rgb(254,254,254)" stroke="rgb(254,254,254)" stroke-width="1" opacity="1" d="M 1792.5 308 L 1793.5 310 L 1792.5 308 Z " /><path fill="rgb(254,254,254)" stroke="rgb(254,254,254)" stroke-width="1" opacity="1" d="M 1800.5 308 L 1800 309.5 L 1798.5 312 L 1799 310.5 L 1800.5 308 Z " /><path fill="rgb(254,254,254)" stroke="rgb(254,254,254)" stroke-width="1" opacity="1" d="M 1811.5 308 L 1811 309.5 L 1809.5 312 L 1810 310.5 L 1811.5 308 Z " /><path fill="rgb(254,254,254)" stroke="rgb(254,254,254)" stroke-width="1" opacity="1" d="M 567.5 309 L 568.5 311 L 567.5 309 Z " /><path fill="rgb(254,254,254)" stroke="rgb(254,254,254)" stroke-width="1" opacity="1" d="M 332.5 310 L 333.5 312 L 332.5 310 Z " /><path fill="rgb(254,254,254)" stroke="rgb(254,254,254)" stroke-width="1" opacity="1" d="M 579.5 310 L 580.5 312 L 579.5 310 Z " /><path fill="rgb(254,254,254)" stroke="rgb(254,254,254)" stroke-width="1" opacity="1" d="M 1756.5 310 L 1757 319.5 L 1756 319.5 L 1756.5 310 Z " /><path fill="rgb(254,254,254)" stroke="rgb(254,254,254)" stroke-width="1" opacity="1" d="M 1782.5 310 L 1783.5 312 L 1782.5 310 Z " /><path fill="rgb(254,254,254)" stroke="rgb(254,254,254)" stroke-width="1" opacity="1" d="M 422.5 311 L 423 318.5 L 422 318.5 L 422.5 311 Z " /><path fill="rgb(254,254,254)" stroke="rgb(254,254,254)" stroke-width="1" opacity="1" d="M 584.5 311 L 583.5 313 L 584.5 311 Z " /><path fill="rgb(254,254,254)" stroke="rgb(254,254,254)" stroke-width="1" opacity="1" d="M 595.5 311 L 594.5 313 L 595.5 311 Z " /><path fill="rgb(254,254,254)" stroke="rgb(254,254,254)" stroke-width="1" opacity="1" d="M 1117.5 311 L 1116.5 313 L 1117.5 311 Z " /><path fill="rgb(254,254,254)" stroke="rgb(254,254,254)" stroke-width="1" opacity="1" d="M 1642.5 311 L 1647 313.5 L 1645.5 313 Q 1641.7 312.8 1642.5 311 Z " /><path fill="rgb(254,254,254)" stroke="rgb(254,254,254)" stroke-width="1" opacity="1" d="M 569.5 312 L 570.5 314 L 569.5 312 Z " /><path fill="rgb(254,254,254)" stroke="rgb(254,254,254)" stroke-width="1" opacity="1" d="M 1203.5 312 L 1204 316.5 L 1203 316.5 L 1203.5 312 Z " /><path fill="rgb(254,254,254)" stroke="rgb(254,254,254)" stroke-width="1" opacity="1" d="M 1213.5 312 L 1214 356.5 L 1213 356.5 L 1213.5 312 Z " /><path fill="rgb(254,254,254)" stroke="rgb(254,254,254)" stroke-width="1" opacity="1" d="M 372.5 313 L 374.5 316 L 372.5 313 Z " /><path fill="rgb(254,254,254)" stroke="rgb(254,254,254)" stroke-width="1" opacity="1" d="M 581.5 313 L 582.5 315 L 581.5 313 Z " /><path fill="rgb(254,254,254)" stroke="rgb(254,254,254)" stroke-width="1" opacity="1" d="M 961.5 313 L 962 314.5 L 960.5 317 L 960 315.5 L 961.5 313 Z " /><path fill="rgb(254,254,254)" stroke="rgb(254,254,254)" stroke-width="1" opacity="1" d="M 1265.5 313 L 1266 356.5 L 1265 356.5 L 1265.5 313 Z " /><path fill="rgb(254,254,254)" stroke="rgb(254,254,254)" stroke-width="1" opacity="1" d="M 1795.5 313 L 1798 313.5 Q 1795.9 316.8 1795.5 313 Z " /><path fill="rgb(254,254,254)" stroke="rgb(254,254,254)" stroke-width="1" opacity="1" d="M 1808.5 313 L 1807.5 315 L 1808.5 313 Z " /><path fill="rgb(254,254,254)" stroke="rgb(254,254,254)" stroke-width="1" opacity="1" d="M 593.5 314 L 593 315.5 L 591.5 318 L 592 316.5 L 593.5 314 Z " /><path fill="rgb(254,254,254)" stroke="rgb(254,254,254)" stroke-width="1" opacity="1" d="M 1155.5 314 L 1156 356.5 L 1155 356.5 L 1155.5 314 Z " /><path fill="rgb(254,254,254)" stroke="rgb(254,254,254)" stroke-width="1" opacity="1" d="M 1307.5 314 L 1308 356.5 L 1307 356.5 L 1307.5 314 Z " /><path fill="rgb(254,254,254)" stroke="rgb(254,254,254)" stroke-width="1" opacity="1" d="M 1648.5 314 L 1651.5 318 L 1648.5 314 Z " /><path fill="rgb(254,254,254)" stroke="rgb(254,254,254)" stroke-width="1" opacity="1" d="M 1317.5 315 L 1318 356.5 L 1317 356.5 L 1317.5 315 Z " /><path fill="rgb(254,254,254)" stroke="rgb(254,254,254)" stroke-width="1" opacity="1" d="M 1619.5 315 L 1622 315.5 L 1619.5 316 L 1619.5 315 Z " /><path fill="rgb(254,254,254)" stroke="rgb(254,254,254)" stroke-width="1" opacity="1" d="M 1785.5 315 L 1786.5 317 L 1785.5 315 Z " /><path fill="rgb(254,254,254)" stroke="rgb(254,254,254)" stroke-width="1" opacity="1" d="M 922.5 316 L 924 319.5 L 923 319.5 L 922.5 316 Z " /><path fill="rgb(254,254,254)" stroke="rgb(254,254,254)" stroke-width="1" opacity="1" d="M 1165.5 316 L 1166 356.5 L 1165 356.5 L 1165.5 316 Z " /><path fill="rgb(254,254,254)" stroke="rgb(254,254,254)" stroke-width="1" opacity="1" d="M 1806.5 316 L 1805.5 318 L 1806.5 316 Z " /><path fill="rgb(254,254,254)" stroke="rgb(254,254,254)" stroke-width="1" opacity="1" d="M 572.5 317 L 573.5 319 L 572.5 317 Z " /><path fill="rgb(254,254,254)" stroke="rgb(254,254,254)" stroke-width="1" opacity="1" d="M 377.5 318 L 378.5 320 L 377.5 318 Z " /><path fill="rgb(254,254,254)" stroke="rgb(254,254,254)" stroke-width="1" opacity="1" d="M 1787.5 318 L 1788.5 320 L 1787.5 318 Z " /><path fill="rgb(254,254,254)" stroke="rgb(254,254,254)" stroke-width="1" opacity="1" d="M 590.5 319 L 589.5 321 L 590.5 319 Z " /><path fill="rgb(254,254,254)" stroke="rgb(254,254,254)" stroke-width="1" opacity="1" d="M 1652.5 319 L 1653.5 321 L 1652.5 319 Z " /><path fill="rgb(254,254,254)" stroke="rgb(254,254,254)" stroke-width="1" opacity="1" d="M 1677.5 319 L 1678 322.5 L 1677 322.5 L 1677.5 319 Z " /><path fill="rgb(254,254,254)" stroke="rgb(254,254,254)" stroke-width="1" opacity="1" d="M 501.5 320 L 502 322.5 L 501 322.5 L 501.5 320 Z " /><path fill="rgb(254,254,254)" stroke="rgb(254,254,254)" stroke-width="1" opacity="1" d="M 574.5 320 L 575.5 322 L 574.5 320 Z " /><path fill="rgb(254,254,254)" stroke="rgb(254,254,254)" stroke-width="1" opacity="1" d="M 366.5 321 L 369.5 325 L 366.5 321 Z " /><path fill="rgb(254,254,254)" stroke="rgb(254,254,254)" stroke-width="1" opacity="1" d="M 1640.5 321 L 1641.5 323 L 1640.5 321 Z " /><path fill="rgb(254,254,254)" stroke="rgb(254,254,254)" stroke-width="1" opacity="1" d="M 1803.5 321 L 1802.5 323 L 1803.5 321 Z " /><path fill="rgb(254,254,254)" stroke="rgb(254,254,254)" stroke-width="1" opacity="1" d="M 511.5 322 L 512 324.5 L 511 324.5 L 511.5 322 Z " /><path fill="rgb(254,254,254)" stroke="rgb(254,254,254)" stroke-width="1" opacity="1" d="M 588.5 322 L 587.5 324 L 588.5 322 Z " /><path fill="rgb(254,254,254)" stroke="rgb(254,254,254)" stroke-width="1" opacity="1" d="M 914.5 322 L 916 325.5 L 915 325.5 L 914.5 322 Z " /><path fill="rgb(254,254,254)" stroke="rgb(254,254,254)" stroke-width="1" opacity="1" d="M 1667.5 322 L 1668 324.5 L 1667 324.5 L 1667.5 322 Z " /><path fill="rgb(254,254,254)" stroke="rgb(254,254,254)" stroke-width="1" opacity="1" d="M 16.5 323 L 17 327.5 L 16 327.5 L 16.5 323 Z " /><path fill="rgb(254,254,254)" stroke="rgb(254,254,254)" stroke-width="1" opacity="1" d="M 1524.5 323 L 1525 327.5 L 1524 327.5 L 1524.5 323 Z " /><path fill="rgb(254,254,254)" stroke="rgb(254,254,254)" stroke-width="1" opacity="1" d="M 1790.5 323 L 1792 324.5 L 1792 356.5 L 1791 356.5 L 1791 324.5 L 1790.5 323 Z " /><path fill="rgb(254,254,254)" stroke="rgb(254,254,254)" stroke-width="1" opacity="1" d="M 75.5 324 L 76 328.5 L 75 328.5 L 75.5 324 Z " /><path fill="rgb(254,254,254)" stroke="rgb(254,254,254)" stroke-width="1" opacity="1" d="M 1583.5 324 L 1584 328.5 L 1583 328.5 L 1583.5 324 Z " /><path fill="rgb(254,254,254)" stroke="rgb(254,254,254)" stroke-width="1" opacity="1" d="M 1801.5 324 L 1802 356.5 L 1801 356.5 L 1801.5 324 Z " /><path fill="rgb(254,254,254)" stroke="rgb(254,254,254)" stroke-width="1" opacity="1" d="M 6.5 325 L 7 329.5 L 6 329.5 L 6.5 325 Z " /><path fill="rgb(254,254,254)" stroke="rgb(254,254,254)" stroke-width="1" opacity="1" d="M 1514.5 325 L 1515 329.5 L 1514 329.5 L 1514.5 325 Z " /><path fill="rgb(254,254,254)" stroke="rgb(254,254,254)" stroke-width="1" opacity="1" d="M 955.5 326 L 956 327.5 L 954.5 330 L 954 328.5 L 955.5 326 Z " /><path fill="rgb(254,254,254)" stroke="rgb(254,254,254)" stroke-width="1" opacity="1" d="M 268.5 327 L 269 329.5 L 268 329.5 L 268.5 327 Z " /><path fill="rgb(254,254,254)" stroke="rgb(254,254,254)" stroke-width="1" opacity="1" d="M 1381.5 327 L 1382 329.5 L 1381 329.5 L 1381.5 327 Z " /><path fill="rgb(254,254,254)" stroke="rgb(254,254,254)" stroke-width="1" opacity="1" d="M 499.5 328 L 500 329.5 L 496.5 335 L 497 333.5 L 499.5 328 Z " /><path fill="rgb(254,254,254)" stroke="rgb(254,254,254)" stroke-width="1" opacity="1" d="M 1429.5 328 L 1430 330.5 L 1429 330.5 L 1429.5 328 Z " /><path fill="rgb(254,254,254)" stroke="rgb(254,254,254)" stroke-width="1" opacity="1" d="M 278.5 329 L 279 331.5 L 278 331.5 L 278.5 329 Z " /><path fill="rgb(254,254,254)" stroke="rgb(254,254,254)" stroke-width="1" opacity="1" d="M 1371.5 329 L 1372 331.5 L 1371 331.5 L 1371.5 329 Z " /><path fill="rgb(254,254,254)" stroke="rgb(254,254,254)" stroke-width="1" opacity="1" d="M 1656.5 329 L 1657 336.5 L 1656 336.5 L 1656.5 329 Z " /><path fill="rgb(254,254,254)" stroke="rgb(254,254,254)" stroke-width="1" opacity="1" d="M 1680.5 330 L 1682 332.5 L 1680 331.5 L 1680.5 330 Z " /><path fill="rgb(254,254,254)" stroke="rgb(254,254,254)" stroke-width="1" opacity="1" d="M 1646.5 331 L 1647 335.5 L 1646 335.5 L 1646.5 331 Z " /><path fill="rgb(254,254,254)" stroke="rgb(254,254,254)" stroke-width="1" opacity="1" d="M 437.5 333 L 438.5 335 L 437.5 333 Z " /><path fill="rgb(254,254,254)" stroke="rgb(254,254,254)" stroke-width="1" opacity="1" d="M 1682.5 334 L 1683.5 336 L 1682.5 334 Z " /><path fill="rgb(254,254,254)" stroke="rgb(254,254,254)" stroke-width="1" opacity="1" d="M 266.5 335 L 267 336.5 L 264.5 340 L 265 338.5 L 266.5 335 Z " /><path fill="rgb(254,254,254)" stroke="rgb(254,254,254)" stroke-width="1" opacity="1" d="M 1740.5 335 L 1733.5 343 L 1740.5 335 Z " /><path fill="rgb(254,254,254)" stroke="rgb(254,254,254)" stroke-width="1" opacity="1" d="M 62.5 336 L 63 337.5 L 61 338.5 L 62.5 336 Z " /><path fill="rgb(254,254,254)" stroke="rgb(254,254,254)" stroke-width="1" opacity="1" d="M 427.5 336 L 428.5 338 L 427.5 336 Z " /><path fill="rgb(254,254,254)" stroke="rgb(254,254,254)" stroke-width="1" opacity="1" d="M 439.5 336 L 445.5 343 L 439.5 336 Z " /><path fill="rgb(254,254,254)" stroke="rgb(254,254,254)" stroke-width="1" opacity="1" d="M 1751.5 336 L 1750.5 338 L 1751.5 336 Z " /><path fill="rgb(254,254,254)" stroke="rgb(254,254,254)" stroke-width="1" opacity="1" d="M 19.5 337 L 23 341.5 L 20 339.5 L 19.5 337 Z " /><path fill="rgb(254,254,254)" stroke="rgb(254,254,254)" stroke-width="1" opacity="1" d="M 494.5 337 L 489.5 343 L 494.5 337 Z " /><path fill="rgb(254,254,254)" stroke="rgb(254,254,254)" stroke-width="1" opacity="1" d="M 506.5 337 L 506 338.5 L 503.5 342 L 505 339.5 L 506.5 337 Z " /><path fill="rgb(254,254,254)" stroke="rgb(254,254,254)" stroke-width="1" opacity="1" d="M 1384.5 337 L 1386 339.5 L 1384 338.5 L 1384.5 337 Z " /><path fill="rgb(254,254,254)" stroke="rgb(254,254,254)" stroke-width="1" opacity="1" d="M 1684.5 337 L 1688.5 342 L 1684.5 337 Z " /><path fill="rgb(254,254,254)" stroke="rgb(254,254,254)" stroke-width="1" opacity="1" d="M 223.5 338 L 224.5 340 L 223.5 338 Z " /><path fill="rgb(254,254,254)" stroke="rgb(254,254,254)" stroke-width="1" opacity="1" d="M 1426.5 338 L 1425.5 340 L 1426.5 338 Z " /><path fill="rgb(254,254,254)" stroke="rgb(254,254,254)" stroke-width="1" opacity="1" d="M 9.5 339 L 12 343.5 L 10 342.5 L 9.5 339 Z " /><path fill="rgb(254,254,254)" stroke="rgb(254,254,254)" stroke-width="1" opacity="1" d="M 429.5 339 L 430.5 341 L 429.5 339 Z " /><path fill="rgb(254,254,254)" stroke="rgb(254,254,254)" stroke-width="1" opacity="1" d="M 1517.5 339 L 1520 343.5 L 1518 342.5 L 1517.5 339 Z " /><path fill="rgb(254,254,254)" stroke="rgb(254,254,254)" stroke-width="1" opacity="1" d="M 1528.5 339 L 1530.5 342 L 1528.5 339 Z " /><path fill="rgb(254,254,254)" stroke="rgb(254,254,254)" stroke-width="1" opacity="1" d="M 1673.5 339 L 1675.5 342 L 1673.5 339 Z " /><path fill="rgb(254,254,254)" stroke="rgb(254,254,254)" stroke-width="1" opacity="1" d="M 1749.5 339 L 1748.5 341 L 1749.5 339 Z " /><path fill="rgb(254,254,254)" stroke="rgb(254,254,254)" stroke-width="1" opacity="1" d="M 60.5 340 L 55.5 346 L 60.5 340 Z " /><path fill="rgb(254,254,254)" stroke="rgb(254,254,254)" stroke-width="1" opacity="1" d="M 213.5 340 L 216 344.5 L 214 343.5 L 213.5 340 Z " /><path fill="rgb(254,254,254)" stroke="rgb(254,254,254)" stroke-width="1" opacity="1" d="M 1436.5 340 L 1437 341.5 L 1434.5 345 L 1435 343.5 L 1436.5 340 Z " /><path fill="rgb(254,254,254)" stroke="rgb(254,254,254)" stroke-width="1" opacity="1" d="M 1568.5 340 L 1563.5 346 L 1568.5 340 Z " /><path fill="rgb(254,254,254)" stroke="rgb(254,254,254)" stroke-width="1" opacity="1" d="M 225.5 341 L 229.5 346 L 225.5 341 Z " /><path fill="rgb(254,254,254)" stroke="rgb(254,254,254)" stroke-width="1" opacity="1" d="M 263.5 341 L 260.5 345 L 263.5 341 Z " /><path fill="rgb(254,254,254)" stroke="rgb(254,254,254)" stroke-width="1" opacity="1" d="M 1386.5 341 L 1389.5 345 L 1386.5 341 Z " /><path fill="rgb(254,254,254)" stroke="rgb(254,254,254)" stroke-width="1" opacity="1" d="M 1424.5 341 L 1421.5 345 L 1424.5 341 Z " /><path fill="rgb(254,254,254)" stroke="rgb(254,254,254)" stroke-width="1" opacity="1" d="M 1644.5 341 L 1640.5 346 L 1644.5 341 Z " /><path fill="rgb(254,254,254)" stroke="rgb(254,254,254)" stroke-width="1" opacity="1" d="M 324.5 342 L 332 345.5 L 330.5 346 L 324.5 343 L 324.5 342 Z " /><path fill="rgb(254,254,254)" stroke="rgb(254,254,254)" stroke-width="1" opacity="1" d="M 369.5 342 L 366.5 346 L 369.5 342 Z " /><path fill="rgb(254,254,254)" stroke="rgb(254,254,254)" stroke-width="1" opacity="1" d="M 431.5 342 L 438.5 350 L 431.5 342 Z " /><path fill="rgb(254,254,254)" stroke="rgb(254,254,254)" stroke-width="1" opacity="1" d="M 976.5 342 L 981 342.5 L 976.5 343 L 976.5 342 Z " /><path fill="rgb(254,254,254)" stroke="rgb(254,254,254)" stroke-width="1" opacity="1" d="M 1598 342 L 1600 342.5 L 1598 343.5 L 1598 342 Z " /><path fill="rgb(254,254,254)" stroke="rgb(254,254,254)" stroke-width="1" opacity="1" d="M 1690.5 342 L 1692.5 345 L 1690.5 342 Z " /><path fill="rgb(254,254,254)" stroke="rgb(254,254,254)" stroke-width="1" opacity="1" d="M 1747.5 342 L 1741.5 349 L 1747.5 342 Z " /><path fill="rgb(254,254,254)" stroke="rgb(254,254,254)" stroke-width="1" opacity="1" d="M 447.5 343 L 448.5 345 L 447.5 343 Z " /><path fill="rgb(254,254,254)" stroke="rgb(254,254,254)" stroke-width="1" opacity="1" d="M 487.5 343 L 486.5 345 L 487.5 343 Z " /><path fill="rgb(254,254,254)" stroke="rgb(254,254,254)" stroke-width="1" opacity="1" d="M 502.5 343 L 498.5 348 L 502.5 343 Z " /><path fill="rgb(254,254,254)" stroke="rgb(254,254,254)" stroke-width="1" opacity="1" d="M 973.5 343 L 975 343.5 L 972.5 345 L 973.5 343 Z " /><path fill="rgb(254,254,254)" stroke="rgb(254,254,254)" stroke-width="1" opacity="1" d="M 982.5 343 L 985 344.5 L 983.5 344 L 982.5 343 Z " /><path fill="rgb(254,254,254)" stroke="rgb(254,254,254)" stroke-width="1" opacity="1" d="M 1676.5 343 L 1680.5 348 L 1676.5 343 Z " /><path fill="rgb(254,254,254)" stroke="rgb(254,254,254)" stroke-width="1" opacity="1" d="M 1731.5 343 L 1730.5 345 L 1731.5 343 Z " /><path fill="rgb(254,254,254)" stroke="rgb(254,254,254)" stroke-width="1" opacity="1" d="M 25.5 344 L 26.5 346 L 25.5 344 Z " /><path fill="rgb(254,254,254)" stroke="rgb(254,254,254)" stroke-width="1" opacity="1" d="M 273.5 344 L 272.5 346 L 273.5 344 Z " /><path fill="rgb(254,254,254)" stroke="rgb(254,254,254)" stroke-width="1" opacity="1" d="M 1376.5 344 L 1383 351.5 L 1377 346.5 L 1376.5 344 Z " /><path fill="rgb(254,254,254)" stroke="rgb(254,254,254)" stroke-width="1" opacity="1" d="M 1533.5 344 L 1534.5 346 L 1533.5 344 Z " /><path fill="rgb(254,254,254)" stroke="rgb(254,254,254)" stroke-width="1" opacity="1" d="M 12.5 345 L 13.5 347 L 12.5 345 Z " /><path fill="rgb(254,254,254)" stroke="rgb(254,254,254)" stroke-width="1" opacity="1" d="M 69.5 345 L 62.5 353 L 69.5 345 Z " /><path fill="rgb(254,254,254)" stroke="rgb(254,254,254)" stroke-width="1" opacity="1" d="M 258.5 345 L 257.5 347 L 258.5 345 Z " /><path fill="rgb(254,254,254)" stroke="rgb(254,254,254)" stroke-width="1" opacity="1" d="M 1391.5 345 L 1392.5 347 L 1391.5 345 Z " /><path fill="rgb(254,254,254)" stroke="rgb(254,254,254)" stroke-width="1" opacity="1" d="M 1419.5 345 L 1418.5 347 L 1419.5 345 Z " /><path fill="rgb(254,254,254)" stroke="rgb(254,254,254)" stroke-width="1" opacity="1" d="M 1520.5 345 L 1521.5 347 L 1520.5 345 Z " /><path fill="rgb(254,254,254)" stroke="rgb(254,254,254)" stroke-width="1" opacity="1" d="M 1577.5 345 L 1570.5 353 L 1577.5 345 Z " /><path fill="rgb(254,254,254)" stroke="rgb(254,254,254)" stroke-width="1" opacity="1" d="M 1653.5 345 L 1652.5 347 L 1653.5 345 Z " /><path fill="rgb(254,254,254)" stroke="rgb(254,254,254)" stroke-width="1" opacity="1" d="M 28.5 346 L 31 347.5 L 29.5 348 L 28.5 346 Z " /><path fill="rgb(254,254,254)" stroke="rgb(254,254,254)" stroke-width="1" opacity="1" d="M 216.5 346 L 221.5 352 L 216.5 346 Z " /><path fill="rgb(254,254,254)" stroke="rgb(254,254,254)" stroke-width="1" opacity="1" d="M 378.5 346 L 372.5 353 L 378.5 346 Z " /><path fill="rgb(254,254,254)" stroke="rgb(254,254,254)" stroke-width="1" opacity="1" d="M 936.5 346 L 937 348 L 935 347.5 L 936.5 346 Z " /><path fill="rgb(254,254,254)" stroke="rgb(254,254,254)" stroke-width="1" opacity="1" d="M 1433.5 346 L 1428.5 352 L 1433.5 346 Z " /><path fill="rgb(254,254,254)" stroke="rgb(254,254,254)" stroke-width="1" opacity="1" d="M 1536.5 346 L 1539 347.5 L 1537.5 348 L 1536.5 346 Z " /><path fill="rgb(254,254,254)" stroke="rgb(254,254,254)" stroke-width="1" opacity="1" d="M 271.5 347 L 267.5 352 L 271.5 347 Z " /><path fill="rgb(254,254,254)" stroke="rgb(254,254,254)" stroke-width="1" opacity="1" d="M 496.5 348 L 494.5 351 L 496.5 348 Z " /><path fill="rgb(254,254,254)" stroke="rgb(254,254,254)" stroke-width="1" opacity="1" d="M 36.5 349 L 46 349.5 L 36.5 350 L 36.5 349 Z " /><path fill="rgb(254,254,254)" stroke="rgb(254,254,254)" stroke-width="1" opacity="1" d="M 240.5 349 L 249 349.5 L 240.5 350 L 240.5 349 Z " /><path fill="rgb(254,254,254)" stroke="rgb(254,254,254)" stroke-width="1" opacity="1" d="M 321.5 349 L 322 352 L 326 353.5 L 324.5 354 L 321 351.5 L 321.5 349 Z " /><path fill="rgb(254,254,254)" stroke="rgb(254,254,254)" stroke-width="1" opacity="1" d="M 347.5 349 L 353 349.5 L 347.5 350 L 347.5 349 Z " /><path fill="rgb(254,254,254)" stroke="rgb(254,254,254)" stroke-width="1" opacity="1" d="M 462.5 349 L 473 349.5 L 462.5 350 L 462.5 349 Z " /><path fill="rgb(254,254,254)" stroke="rgb(254,254,254)" stroke-width="1" opacity="1" d="M 1401.5 349 L 1410 349.5 L 1401.5 350 L 1401.5 349 Z " /><path fill="rgb(254,254,254)" stroke="rgb(254,254,254)" stroke-width="1" opacity="1" d="M 1506.5 349 L 1507 355.5 L 1506 355.5 L 1506.5 349 Z " /><path fill="rgb(254,254,254)" stroke="rgb(254,254,254)" stroke-width="1" opacity="1" d="M 1544.5 349 L 1554 349.5 L 1544.5 350 L 1544.5 349 Z " /><path fill="rgb(254,254,254)" stroke="rgb(254,254,254)" stroke-width="1" opacity="1" d="M 1621.5 349 L 1628 349.5 L 1621.5 350 L 1621.5 349 Z " /><path fill="rgb(254,254,254)" stroke="rgb(254,254,254)" stroke-width="1" opacity="1" d="M 1650.5 349 L 1648.5 352 L 1650.5 349 Z " /><path fill="rgb(254,254,254)" stroke="rgb(254,254,254)" stroke-width="1" opacity="1" d="M 1683.5 349 L 1684.5 351 L 1683.5 349 Z " /><path fill="rgb(254,254,254)" stroke="rgb(254,254,254)" stroke-width="1" opacity="1" d="M 1707.5 349 L 1717 349.5 L 1707.5 350 L 1707.5 349 Z " /><path fill="rgb(254,254,254)" stroke="rgb(254,254,254)" stroke-width="1" opacity="1" d="M 1739.5 349 L 1737.5 352 L 1739.5 349 Z " /><path fill="rgb(254,254,254)" stroke="rgb(254,254,254)" stroke-width="1" opacity="1" d="M 440.5 350 L 441.5 352 L 440.5 350 Z " /><path fill="rgb(254,254,254)" stroke="rgb(254,254,254)" stroke-width="1" opacity="1" d="M 944.5 350 L 945 351.5 L 943.5 354 L 943 352.5 L 944.5 350 Z " /><path fill="rgb(254,254,254)" stroke="rgb(254,254,254)" stroke-width="1" opacity="1" d="M 18.5 351 L 23 354.5 L 21.5 354 L 18.5 351 Z " /><path fill="rgb(254,254,254)" stroke="rgb(254,254,254)" stroke-width="1" opacity="1" d="M 492.5 351 L 491.5 353 L 492.5 351 Z " /><path fill="rgb(254,254,254)" stroke="rgb(254,254,254)" stroke-width="1" opacity="1" d="M 1526.5 351 L 1531 354.5 L 1529.5 354 L 1526.5 351 Z " /><path fill="rgb(254,254,254)" stroke="rgb(254,254,254)" stroke-width="1" opacity="1" d="M 1686.5 351 L 1687.5 353 L 1686.5 351 Z " /><path fill="rgb(254,254,254)" stroke="rgb(254,254,254)" stroke-width="1" opacity="1" d="M 265.5 352 L 264.5 354 L 265.5 352 Z " /><path fill="rgb(254,254,254)" stroke="rgb(254,254,254)" stroke-width="1" opacity="1" d="M 1384.5 352 L 1385.5 354 L 1384.5 352 Z " /><path fill="rgb(254,254,254)" stroke="rgb(254,254,254)" stroke-width="1" opacity="1" d="M 1426.5 352 L 1425.5 354 L 1426.5 352 Z " /><path fill="rgb(254,254,254)" stroke="rgb(254,254,254)" stroke-width="1" opacity="1" d="M 1646.5 352 L 1645.5 354 L 1646.5 352 Z " /><path fill="rgb(254,254,254)" stroke="rgb(254,254,254)" stroke-width="1" opacity="1" d="M 60.5 353 L 59.5 355 L 56.5 356 L 56.5 355 L 60.5 353 Z " /><path fill="rgb(254,254,254)" stroke="rgb(254,254,254)" stroke-width="1" opacity="1" d="M 370.5 353 L 369.5 355 L 370.5 353 Z " /><path fill="rgb(254,254,254)" stroke="rgb(254,254,254)" stroke-width="1" opacity="1" d="M 1568.5 353 L 1567.5 355 L 1566 354.5 L 1568.5 353 Z " /><path fill="rgb(254,254,254)" stroke="rgb(254,254,254)" stroke-width="1" opacity="1" d="M 1691.5 354 L 1695 355.5 L 1693.5 356 L 1691.5 354 Z " /><path fill="rgb(254,254,254)" stroke="rgb(254,254,254)" stroke-width="1" opacity="1" d="M 942.5 355 L 941.5 357 L 942.5 355 Z " /><path fill="rgb(254,254,254)" stroke="rgb(254,254,254)" stroke-width="1" opacity="1" d="M 972.5 355 L 973.5 357 L 972.5 355 Z " /><path fill="rgb(254,254,254)" stroke="rgb(254,254,254)" stroke-width="1" opacity="1" d="M 984.5 355 L 983.5 357 L 984.5 355 Z " /><path fill="rgb(254,254,254)" stroke="rgb(254,254,254)" stroke-width="1" opacity="1" d="M 476.5 357 L 479 357.5 L 476.5 358 L 476.5 357 Z " /><path fill="rgb(254,254,254)" stroke="rgb(254,254,254)" stroke-width="1" opacity="1" d="M 1611.5 357 L 1614 357.5 L 1611.5 358 L 1611.5 357 Z " /><path fill="rgb(254,254,254)" stroke="rgb(254,254,254)" stroke-width="1" opacity="1" d="M 1633.5 357 L 1636 357.5 L 1633.5 358 L 1633.5 357 Z " /><path fill="rgb(254,254,254)" stroke="rgb(254,254,254)" stroke-width="1" opacity="1" d="M 1700.5 357 L 1703 357.5 L 1700.5 358 L 1700.5 357 Z " /><path fill="rgb(254,254,254)" stroke="rgb(254,254,254)" stroke-width="1" opacity="1" d="M 37.5 358 L 44 358.5 L 37.5 359 L 37.5 358 Z " /><path fill="rgb(254,254,254)" stroke="rgb(254,254,254)" stroke-width="1" opacity="1" d="M 241.5 358 L 248 358.5 L 241.5 359 L 241.5 358 Z " /><path fill="rgb(254,254,254)" stroke="rgb(254,254,254)" stroke-width="1" opacity="1" d="M 345.5 358 L 354 358.5 L 345.5 359 L 345.5 358 Z " /><path fill="rgb(254,254,254)" stroke="rgb(254,254,254)" stroke-width="1" opacity="1" d="M 464.5 358 L 471 358.5 L 464.5 359 L 464.5 358 Z " /><path fill="rgb(254,254,254)" stroke="rgb(254,254,254)" stroke-width="1" opacity="1" d="M 1402.5 358 L 1409 358.5 L 1402.5 359 L 1402.5 358 Z " /><path fill="rgb(254,254,254)" stroke="rgb(254,254,254)" stroke-width="1" opacity="1" d="M 1545.5 358 L 1552 358.5 L 1545.5 359 L 1545.5 358 Z " /><path fill="rgb(254,254,254)" stroke="rgb(254,254,254)" stroke-width="1" opacity="1" d="M 1619.5 358 L 1629 358.5 L 1619.5 359 L 1619.5 358 Z " /><path fill="rgb(254,254,254)" stroke="rgb(254,254,254)" stroke-width="1" opacity="1" d="M 1708.5 358 L 1715 358.5 L 1708.5 359 L 1708.5 358 Z " /><path fill="rgb(254,254,254)" stroke="rgb(254,254,254)" stroke-width="1" opacity="1" d="M 360.5 434 Q 365.3 433.3 366 436.5 Q 366.8 440.3 364.5 441 L 365 439.5 Q 365.8 435.8 363.5 435 Q 359.8 434.3 359 436.5 L 360 440.5 L 358 439.5 Q 357.3 434.8 360.5 434 Z " /><path fill="rgb(254,254,254)" stroke="rgb(254,254,254)" stroke-width="1" opacity="1" d="M 374.5 434 Q 379.3 433.3 380 436.5 Q 380.8 440.3 378.5 441 L 377 440.5 L 379 440 Q 380 436.2 377.5 435 Q 373.8 434.3 373 436.5 L 374 440.5 L 372 439.5 Q 371.3 434.8 374.5 434 Z " /><path fill="rgb(254,254,254)" stroke="rgb(254,254,254)" stroke-width="1" opacity="1" d="M 459.5 444 L 469 444.5 L 459.5 445 L 459.5 444 Z " /><path fill="rgb(254,254,254)" stroke="rgb(254,254,254)" stroke-width="1" opacity="1" d="M 507.5 444 L 516 444.5 L 507.5 445 L 507.5 444 Z " /><path fill="rgb(254,254,254)" stroke="rgb(254,254,254)" stroke-width="1" opacity="1" d="M 47 445 L 53 445 L 53 462.5 L 52 462.5 L 52 446.5 L 48 446 L 48 486.5 L 52 487 L 52 467 L 77 467 L 77 486.5 L 81 487 L 81 446.5 L 77 446 L 76.5 463 L 76 445 L 81.5 445 L 82 445.5 L 82 488 L 76.5 488 L 76 487.5 L 76 468 L 53 468 L 53 487.5 L 52.5 488 L 47 488 L 47 445 Z " /><path fill="rgb(254,254,254)" stroke="rgb(254,254,254)" stroke-width="1" opacity="1" d="M 95.5 445 L 100 445.5 L 95.5 446 L 95.5 445 Z " /><path fill="rgb(254,254,254)" stroke="rgb(254,254,254)" stroke-width="1" opacity="1" d="M 125.5 445 L 130 445.5 L 125.5 446 L 125.5 445 Z " /><path fill="rgb(254,254,254)" stroke="rgb(254,254,254)" stroke-width="1" opacity="1" d="M 143 445 L 148.5 445 L 149 445.5 L 149 466.5 L 150 466.5 L 170.5 445 L 177 445.5 L 161 462.5 L 161.5 464 L 160 462.5 L 174 448.5 L 175 446.5 L 170.5 446 L 149.5 468 L 148 467.5 L 148 446.5 L 144 446 L 144 486.5 L 148 487 L 148 473.5 L 150.5 471 L 157.5 466 L 157.5 467 L 149 474.5 L 149 488 L 143 488 L 143 445 Z " /><path fill="rgb(254,254,254)" stroke="rgb(254,254,254)" stroke-width="1" opacity="1" d="M 188 445 L 193.5 445 L 194 445.5 L 194 472.5 L 193 472.5 L 193 446.5 L 189 446 L 188.5 474 L 188 445 Z " /><path fill="rgb(254,254,254)" stroke="rgb(254,254,254)" stroke-width="1" opacity="1" d="M 218 445 L 223.5 445 L 224 445.5 L 224 471.5 L 223 471.5 L 223 446.5 L 219 446 L 218.5 469 L 218 445 Z " /><path fill="rgb(254,254,254)" stroke="rgb(254,254,254)" stroke-width="1" opacity="1" d="M 236 445 L 242 445.5 L 237 446 L 237 486.5 Q 237 487.5 241.5 487 L 241.5 488 Q 236.1 488.6 236 487.5 L 236 445 Z " /><path fill="rgb(254,254,254)" stroke="rgb(254,254,254)" stroke-width="1" opacity="1" d="M 263.5 445 Q 270.5 443.5 270 446.5 L 254 461.5 L 268.5 446 L 263.5 446 L 253 456.5 L 242.5 468 L 251 458.5 L 263.5 445 Z " /><path fill="rgb(254,254,254)" stroke="rgb(254,254,254)" stroke-width="1" opacity="1" d="M 308.5 445 L 328 445.5 L 308.5 446 L 308.5 445 Z " /><path fill="rgb(254,254,254)" stroke="rgb(254,254,254)" stroke-width="1" opacity="1" d="M 351 445 L 356.5 445 L 357 445.5 L 357 471.5 L 356 471.5 L 356 446.5 L 352 446 L 351.5 474 L 351 445 Z " /><path fill="rgb(254,254,254)" stroke="rgb(254,254,254)" stroke-width="1" opacity="1" d="M 381 445 L 386.5 445 L 387 445.5 L 387 472.5 L 386 472.5 L 386 446.5 L 382 446 L 381.5 470 L 381 445 Z " /><path fill="rgb(254,254,254)" stroke="rgb(254,254,254)" stroke-width="1" opacity="1" d="M 400.5 445 L 421 445.5 L 400.5 446 L 400.5 445 Z " /><path fill="rgb(254,254,254)" stroke="rgb(254,254,254)" stroke-width="1" opacity="1" d="M 455.5 445 L 458 445.5 L 447 451.5 L 444.5 455 L 446 452.5 L 448.5 449 L 455.5 445 Z " /><path fill="rgb(254,254,254)" stroke="rgb(254,254,254)" stroke-width="1" opacity="1" d="M 470.5 445 L 475 446.5 L 473.5 447 L 470.5 446 L 470.5 445 Z " /><path fill="rgb(254,254,254)" stroke="rgb(254,254,254)" stroke-width="1" opacity="1" d="M 504.5 445 L 506 445.5 L 500 449.5 L 498.5 454 L 498 451.5 L 502.5 446 L 504.5 445 Z " /><path fill="rgb(254,254,254)" stroke="rgb(254,254,254)" stroke-width="1" opacity="1" d="M 518.5 445 L 525 447 Q 525.8 450.8 522.5 452 L 521 451.5 L 524 449.5 L 522.5 447 L 518.5 446 L 518.5 445 Z " /><path fill="rgb(254,254,254)" stroke="rgb(254,254,254)" stroke-width="1" opacity="1" d="M 538 445 L 544 445.5 L 539 446 L 538.5 469 L 538 445 Z " /><path fill="rgb(254,254,254)" stroke="rgb(254,254,254)" stroke-width="1" opacity="1" d="M 568 445 L 573.5 445 L 574 445.5 L 574 474.5 L 573 474.5 L 573 446.5 L 569 446 L 568.5 473 L 568 445 Z " /><path fill="rgb(254,254,254)" stroke="rgb(254,254,254)" stroke-width="1" opacity="1" d="M 329.5 446 L 336 450.5 L 335.5 452 L 332.5 448 Q 328.8 447.7 329.5 446 Z " /><path fill="rgb(254,254,254)" stroke="rgb(254,254,254)" stroke-width="1" opacity="1" d="M 425.5 447 Q 432.4 449.1 431 459.5 L 430 459.5 L 430 453.5 L 425.5 447 Z " /><path fill="rgb(254,254,254)" stroke="rgb(254,254,254)" stroke-width="1" opacity="1" d="M 476.5 447 L 477.5 449 L 476.5 447 Z " /><path fill="rgb(254,254,254)" stroke="rgb(254,254,254)" stroke-width="1" opacity="1" d="M 313.5 449 L 326 449.5 L 313.5 450 L 313.5 449 Z " /><path fill="rgb(254,254,254)" stroke="rgb(254,254,254)" stroke-width="1" opacity="1" d="M 405.5 449 L 417 449.5 L 405.5 450 L 405.5 449 Z " /><path fill="rgb(254,254,254)" stroke="rgb(254,254,254)" stroke-width="1" opacity="1" d="M 458.5 449 L 461 449.5 L 458.5 450 L 458.5 449 Z " /><path fill="rgb(254,254,254)" stroke="rgb(254,254,254)" stroke-width="1" opacity="1" d="M 467.5 449 L 470 449.5 L 467.5 450 L 467.5 449 Z " /><path fill="rgb(254,254,254)" stroke="rgb(254,254,254)" stroke-width="1" opacity="1" d="M 479.5 449 L 484 454.5 L 482 453.5 L 479.5 449 Z " /><path fill="rgb(254,254,254)" stroke="rgb(254,254,254)" stroke-width="1" opacity="1" d="M 515.5 449 L 518 449.5 L 515.5 450 L 515.5 449 Z " /><path fill="rgb(254,254,254)" stroke="rgb(254,254,254)" stroke-width="1" opacity="1" d="M 327.5 450 L 331 452.5 L 330.5 454 L 328.5 451 L 327.5 450 Z " /><path fill="rgb(254,254,254)" stroke="rgb(254,254,254)" stroke-width="1" opacity="1" d="M 420.5 450 L 425 453.5 L 421.5 451 L 420.5 450 Z " /><path fill="rgb(254,254,254)" stroke="rgb(254,254,254)" stroke-width="1" opacity="1" d="M 505.5 450 L 504 452.5 L 503.5 454 L 503 452.5 L 505.5 450 Z " /><path fill="rgb(254,254,254)" stroke="rgb(254,254,254)" stroke-width="1" opacity="1" d="M 454.5 451 L 449 457.5 L 448.5 459 L 448 457.5 L 454.5 451 Z " /><path fill="rgb(254,254,254)" stroke="rgb(254,254,254)" stroke-width="1" opacity="1" d="M 473.5 451 L 477 453 L 480 458.5 L 479 458.5 L 473.5 451 Z " /><path fill="rgb(254,254,254)" stroke="rgb(254,254,254)" stroke-width="1" opacity="1" d="M 336.5 453 L 337 457.5 L 336 457.5 L 336.5 453 Z " /><path fill="rgb(254,254,254)" stroke="rgb(254,254,254)" stroke-width="1" opacity="1" d="M 425.5 455 L 426 458.5 L 425 458.5 L 425.5 455 Z " /><path fill="rgb(254,254,254)" stroke="rgb(254,254,254)" stroke-width="1" opacity="1" d="M 442.5 458 L 443 460.5 L 442 460.5 L 442.5 458 Z " /><path fill="rgb(254,254,254)" stroke="rgb(254,254,254)" stroke-width="1" opacity="1" d="M 330.5 459 L 327.5 463 L 325 462.5 L 330.5 459 Z " /><path fill="rgb(254,254,254)" stroke="rgb(254,254,254)" stroke-width="1" opacity="1" d="M 424.5 460 L 422.5 463 L 424.5 460 Z " /><path fill="rgb(254,254,254)" stroke="rgb(254,254,254)" stroke-width="1" opacity="1" d="M 429.5 461 L 430 462.5 L 422 468.5 L 434 488 L 427.5 488 L 426 486.5 L 425 484.5 L 427 485.5 Q 426.4 488.3 432.5 487 L 432 485.5 L 421 468.5 L 429 462.5 L 429.5 461 Z " /><path fill="rgb(254,254,254)" stroke="rgb(254,254,254)" stroke-width="1" opacity="1" d="M 499.5 461 L 506 465.5 L 504.5 466 L 499.5 461 Z " /><path fill="rgb(254,254,254)" stroke="rgb(254,254,254)" stroke-width="1" opacity="1" d="M 334.5 462 L 332.5 465 L 334.5 462 Z " /><path fill="rgb(254,254,254)" stroke="rgb(254,254,254)" stroke-width="1" opacity="1" d="M 441.5 462 L 442 469.5 L 441 469.5 L 441.5 462 Z " /><path fill="rgb(254,254,254)" stroke="rgb(254,254,254)" stroke-width="1" opacity="1" d="M 486.5 462 L 487 469.5 L 486 469.5 L 486.5 462 Z " /><path fill="rgb(254,254,254)" stroke="rgb(254,254,254)" stroke-width="1" opacity="1" d="M 512.5 462 L 515 462.5 L 512.5 463 L 512.5 462 Z " /><path fill="rgb(254,254,254)" stroke="rgb(254,254,254)" stroke-width="1" opacity="1" d="M 254.5 463 L 272 485.5 L 268 482.5 L 254.5 463 Z " /><path fill="rgb(254,254,254)" stroke="rgb(254,254,254)" stroke-width="1" opacity="1" d="M 516.5 463 L 519 463.5 L 516.5 464 L 516.5 463 Z " /><path fill="rgb(254,254,254)" stroke="rgb(254,254,254)" stroke-width="1" opacity="1" d="M 405.5 464 L 417 464.5 L 405.5 465 L 405.5 464 Z " /><path fill="rgb(254,254,254)" stroke="rgb(254,254,254)" stroke-width="1" opacity="1" d="M 481.5 464 L 482 467.5 L 481 467.5 L 481.5 464 Z " /><path fill="rgb(254,254,254)" stroke="rgb(254,254,254)" stroke-width="1" opacity="1" d="M 162.5 465 L 164.5 468 L 162.5 465 Z " /><path fill="rgb(254,254,254)" stroke="rgb(254,254,254)" stroke-width="1" opacity="1" d="M 334.5 465 L 339 470.5 L 338 470.5 L 334.5 465 Z " /><path fill="rgb(254,254,254)" stroke="rgb(254,254,254)" stroke-width="1" opacity="1" d="M 446.5 465 L 447 467.5 L 446 467.5 L 446.5 465 Z " /><path fill="rgb(254,254,254)" stroke="rgb(254,254,254)" stroke-width="1" opacity="1" d="M 522.5 465 L 525.5 469 L 522.5 465 Z " /><path fill="rgb(254,254,254)" stroke="rgb(254,254,254)" stroke-width="1" opacity="1" d="M 249.5 466 L 253 468.5 L 258 475.5 L 255 473.5 L 250.5 467 L 242.5 474 L 249.5 466 Z " /><path fill="rgb(254,254,254)" stroke="rgb(254,254,254)" stroke-width="1" opacity="1" d="M 507.5 466 L 510 466.5 L 507.5 467 L 507.5 466 Z " /><path fill="rgb(254,254,254)" stroke="rgb(254,254,254)" stroke-width="1" opacity="1" d="M 326.5 467 L 329 467.5 L 326.5 468 L 326.5 467 Z " /><path fill="rgb(254,254,254)" stroke="rgb(254,254,254)" stroke-width="1" opacity="1" d="M 512.5 467 L 515 467.5 L 512.5 468 L 512.5 467 Z " /><path fill="rgb(254,254,254)" stroke="rgb(254,254,254)" stroke-width="1" opacity="1" d="M 158.5 468 L 172 485.5 L 169 483.5 L 158.5 468 Z " /><path fill="rgb(254,254,254)" stroke="rgb(254,254,254)" stroke-width="1" opacity="1" d="M 330.5 468 L 333 469.5 L 331.5 469 L 330.5 468 Z " /><path fill="rgb(254,254,254)" stroke="rgb(254,254,254)" stroke-width="1" opacity="1" d="M 516.5 468 L 522 471.5 L 521.5 473 L 519.5 470 Q 515.8 469.7 516.5 468 Z " /><path fill="rgb(254,254,254)" stroke="rgb(254,254,254)" stroke-width="1" opacity="1" d="M 100.5 469 L 101 473.5 L 100 473.5 L 100.5 469 Z " /><path fill="rgb(254,254,254)" stroke="rgb(254,254,254)" stroke-width="1" opacity="1" d="M 124.5 469 L 125 473.5 L 124 473.5 L 124.5 469 Z " /><path fill="rgb(254,254,254)" stroke="rgb(254,254,254)" stroke-width="1" opacity="1" d="M 165.5 469 L 167.5 472 L 165.5 469 Z " /><path fill="rgb(254,254,254)" stroke="rgb(254,254,254)" stroke-width="1" opacity="1" d="M 416.5 469 L 420 474.5 L 418 473.5 L 416.5 469 Z " /><path fill="rgb(254,254,254)" stroke="rgb(254,254,254)" stroke-width="1" opacity="1" d="M 447.5 470 Q 448.7 476.8 453.5 480 L 456 481.5 L 454.5 481 L 449 476.5 Q 446 474 447.5 470 Z " /><path fill="rgb(254,254,254)" stroke="rgb(254,254,254)" stroke-width="1" opacity="1" d="M 480.5 470 L 481 472.5 L 474.5 481 L 472.5 482 L 473.5 480 L 478 476.5 L 480.5 470 Z " /><path fill="rgb(254,254,254)" stroke="rgb(254,254,254)" stroke-width="1" opacity="1" d="M 95.5 472 L 96 475.5 L 95 475.5 L 95.5 472 Z " /><path fill="rgb(254,254,254)" stroke="rgb(254,254,254)" stroke-width="1" opacity="1" d="M 129.5 472 L 130 475.5 L 129 475.5 L 129.5 472 Z " /><path fill="rgb(254,254,254)" stroke="rgb(254,254,254)" stroke-width="1" opacity="1" d="M 339.5 472 L 340 476.5 L 339 476.5 L 339.5 472 Z " /><path fill="rgb(254,254,254)" stroke="rgb(254,254,254)" stroke-width="1" opacity="1" d="M 544.5 472 L 545 474.5 L 544 474.5 L 544.5 472 Z " /><path fill="rgb(254,254,254)" stroke="rgb(254,254,254)" stroke-width="1" opacity="1" d="M 168.5 473 L 178 484.5 L 179 488 L 172 487.5 L 178 486.5 L 168.5 473 Z " /><path fill="rgb(254,254,254)" stroke="rgb(254,254,254)" stroke-width="1" opacity="1" d="M 217.5 473 L 218 475.5 L 213.5 482 L 210.5 483 L 210.5 482 L 215 479.5 L 217.5 473 Z " /><path fill="rgb(254,254,254)" stroke="rgb(254,254,254)" stroke-width="1" opacity="1" d="M 380.5 473 L 381 475.5 L 380 475.5 L 380.5 473 Z " /><path fill="rgb(254,254,254)" stroke="rgb(254,254,254)" stroke-width="1" opacity="1" d="M 527.5 474 L 528 476.5 L 527 476.5 L 527.5 474 Z " /><path fill="rgb(254,254,254)" stroke="rgb(254,254,254)" stroke-width="1" opacity="1" d="M 539.5 474 L 540 476.5 L 539 476.5 L 539.5 474 Z " /><path fill="rgb(254,254,254)" stroke="rgb(254,254,254)" stroke-width="1" opacity="1" d="M 222.5 475 L 223 477.5 L 216.5 486 L 213.5 487 L 213.5 486 L 220 481.5 L 222.5 475 Z " /><path fill="rgb(254,254,254)" stroke="rgb(254,254,254)" stroke-width="1" opacity="1" d="M 385.5 475 L 386 477.5 L 379.5 486 L 376.5 487 L 376.5 486 L 383 481.5 L 385.5 475 Z " /><path fill="rgb(254,254,254)" stroke="rgb(254,254,254)" stroke-width="1" opacity="1" d="M 443.5 475 L 450.5 484 L 456 486.5 L 454.5 487 L 444 478.5 L 443.5 475 Z " /><path fill="rgb(254,254,254)" stroke="rgb(254,254,254)" stroke-width="1" opacity="1" d="M 484.5 475 L 485 476.5 L 477.5 485 L 472.5 487 L 472.5 486 Q 479.7 484.2 483 478.5 L 484.5 475 Z " /><path fill="rgb(254,254,254)" stroke="rgb(254,254,254)" stroke-width="1" opacity="1" d="M 567.5 475 L 568 476.5 L 563.5 482 L 566 478.5 L 567.5 475 Z " /><path fill="rgb(254,254,254)" stroke="rgb(254,254,254)" stroke-width="1" opacity="1" d="M 420.5 476 L 425 482.5 L 423 481.5 L 420.5 476 Z " /><path fill="rgb(254,254,254)" stroke="rgb(254,254,254)" stroke-width="1" opacity="1" d="M 545.5 476 L 550.5 482 L 552 482.5 L 550.5 483 L 547 481 L 545.5 476 Z " /><path fill="rgb(254,254,254)" stroke="rgb(254,254,254)" stroke-width="1" opacity="1" d="M 572.5 476 L 573 478.5 L 570 484 L 566.5 486 L 571 480.5 L 572.5 476 Z " /><path fill="rgb(254,254,254)" stroke="rgb(254,254,254)" stroke-width="1" opacity="1" d="M 195.5 477 L 198.5 481 L 202 482.5 L 200.5 483 L 195 478.5 L 195.5 477 Z " /><path fill="rgb(254,254,254)" stroke="rgb(254,254,254)" stroke-width="1" opacity="1" d="M 258.5 477 L 260.5 480 L 258.5 477 Z " /><path fill="rgb(254,254,254)" stroke="rgb(254,254,254)" stroke-width="1" opacity="1" d="M 333.5 477 L 334 478.5 L 329.5 482 L 329.5 481 L 333 478.5 L 333.5 477 Z " /><path fill="rgb(254,254,254)" stroke="rgb(254,254,254)" stroke-width="1" opacity="1" d="M 379.5 477 L 379 478.5 L 376.5 482 L 373.5 483 L 373.5 482 L 378 479.5 L 379.5 477 Z " /><path fill="rgb(254,254,254)" stroke="rgb(254,254,254)" stroke-width="1" opacity="1" d="M 102.5 478 L 108 482.5 L 106.5 483 L 102.5 478 Z " /><path fill="rgb(254,254,254)" stroke="rgb(254,254,254)" stroke-width="1" opacity="1" d="M 122.5 478 L 118.5 483 L 117 482.5 L 122.5 478 Z " /><path fill="rgb(254,254,254)" stroke="rgb(254,254,254)" stroke-width="1" opacity="1" d="M 540.5 478 L 545.5 485 L 549 486.5 L 547.5 487 L 541 481.5 L 540.5 478 Z " /><path fill="rgb(254,254,254)" stroke="rgb(254,254,254)" stroke-width="1" opacity="1" d="M 359.5 479 L 365 482.5 L 363.5 483 L 359.5 479 Z " /><path fill="rgb(254,254,254)" stroke="rgb(254,254,254)" stroke-width="1" opacity="1" d="M 526.5 479 L 527 480.5 L 522.5 486 L 519.5 487 L 519.5 486 L 525 482.5 L 526.5 479 Z " /><path fill="rgb(254,254,254)" stroke="rgb(254,254,254)" stroke-width="1" opacity="1" d="M 97.5 480 L 100.5 484 L 105 486.5 L 103.5 487 L 98 482.5 L 97.5 480 Z " /><path fill="rgb(254,254,254)" stroke="rgb(254,254,254)" stroke-width="1" opacity="1" d="M 127.5 480 L 127 481.5 L 124.5 485 L 120.5 487 L 120.5 486 L 126 482.5 L 127.5 480 Z " /><path fill="rgb(254,254,254)" stroke="rgb(254,254,254)" stroke-width="1" opacity="1" d="M 498.5 480 L 503 481.5 L 501.5 482 L 498 481 L 497.5 483 L 497 481.5 L 498.5 480 Z " /><path fill="rgb(254,254,254)" stroke="rgb(254,254,254)" stroke-width="1" opacity="1" d="M 520.5 480 L 519.5 482 L 516.5 483 L 516.5 482 L 520.5 480 Z " /><path fill="rgb(254,254,254)" stroke="rgb(254,254,254)" stroke-width="1" opacity="1" d="M 191.5 481 L 195.5 486 L 191.5 481 Z " /><path fill="rgb(254,254,254)" stroke="rgb(254,254,254)" stroke-width="1" opacity="1" d="M 261.5 481 L 266.5 487 L 272 487.5 L 266.5 488 L 261.5 481 Z " /><path fill="rgb(254,254,254)" stroke="rgb(254,254,254)" stroke-width="1" opacity="1" d="M 337.5 481 L 333.5 486 L 332 485.5 L 337.5 481 Z " /><path fill="rgb(254,254,254)" stroke="rgb(254,254,254)" stroke-width="1" opacity="1" d="M 354.5 481 L 358.5 486 L 354.5 481 Z " /><path fill="rgb(254,254,254)" stroke="rgb(254,254,254)" stroke-width="1" opacity="1" d="M 313.5 482 L 328 482.5 L 313.5 483 L 313.5 482 Z " /><path fill="rgb(254,254,254)" stroke="rgb(254,254,254)" stroke-width="1" opacity="1" d="M 109.5 483 L 116 483.5 L 109.5 484 L 109.5 483 Z " /><path fill="rgb(254,254,254)" stroke="rgb(254,254,254)" stroke-width="1" opacity="1" d="M 203.5 483 L 209 483.5 L 203.5 484 L 203.5 483 Z " /><path fill="rgb(254,254,254)" stroke="rgb(254,254,254)" stroke-width="1" opacity="1" d="M 366.5 483 L 372 483.5 L 366.5 484 L 366.5 483 Z " /><path fill="rgb(254,254,254)" stroke="rgb(254,254,254)" stroke-width="1" opacity="1" d="M 460.5 483 L 468 483.5 L 460.5 484 L 460.5 483 Z " /><path fill="rgb(254,254,254)" stroke="rgb(254,254,254)" stroke-width="1" opacity="1" d="M 508.5 483 L 515 483.5 L 508.5 484 L 508.5 483 Z " /><path fill="rgb(254,254,254)" stroke="rgb(254,254,254)" stroke-width="1" opacity="1" d="M 553.5 483 L 560 483.5 L 553.5 484 L 553.5 483 Z " /><path fill="rgb(254,254,254)" stroke="rgb(254,254,254)" stroke-width="1" opacity="1" d="M 197.5 486 L 202 487.5 L 199.5 488 L 197.5 486 Z " /><path fill="rgb(254,254,254)" stroke="rgb(254,254,254)" stroke-width="1" opacity="1" d="M 360.5 486 L 366 487.5 L 362.5 488 L 360.5 486 Z " /><path fill="rgb(254,254,254)" stroke="rgb(254,254,254)" stroke-width="1" opacity="1" d="M 106.5 487 L 109 487.5 L 106.5 488 L 106.5 487 Z " /><path fill="rgb(254,254,254)" stroke="rgb(254,254,254)" stroke-width="1" opacity="1" d="M 116.5 487 L 119 487.5 L 116.5 488 L 116.5 487 Z " /><path fill="rgb(254,254,254)" stroke="rgb(254,254,254)" stroke-width="1" opacity="1" d="M 209.5 487 L 212 487.5 L 209.5 488 L 209.5 487 Z " /><path fill="rgb(254,254,254)" stroke="rgb(254,254,254)" stroke-width="1" opacity="1" d="M 308.5 487 L 325 487.5 L 308.5 488 L 308.5 487 Z " /><path fill="rgb(254,254,254)" stroke="rgb(254,254,254)" stroke-width="1" opacity="1" d="M 372.5 487 L 375 487.5 L 372.5 488 L 372.5 487 Z " /><path fill="rgb(254,254,254)" stroke="rgb(254,254,254)" stroke-width="1" opacity="1" d="M 400.5 487 L 405 487.5 L 400.5 488 L 400.5 487 Z " /><path fill="rgb(254,254,254)" stroke="rgb(254,254,254)" stroke-width="1" opacity="1" d="M 457.5 487 L 460 487.5 L 457.5 488 L 457.5 487 Z " /><path fill="rgb(254,254,254)" stroke="rgb(254,254,254)" stroke-width="1" opacity="1" d="M 467.5 487 L 471 487.5 L 467.5 488 L 467.5 487 Z " /><path fill="rgb(254,254,254)" stroke="rgb(254,254,254)" stroke-width="1" opacity="1" d="M 503.5 487 L 507 487.5 L 503.5 488 L 503.5 487 Z " /><path fill="rgb(254,254,254)" stroke="rgb(254,254,254)" stroke-width="1" opacity="1" d="M 515.5 487 L 518 487.5 L 515.5 488 L 515.5 487 Z " /><path fill="rgb(254,254,254)" stroke="rgb(254,254,254)" stroke-width="1" opacity="1" d="M 550.5 487 L 553 487.5 L 550.5 488 L 550.5 487 Z " /><path fill="rgb(254,254,254)" stroke="rgb(254,254,254)" stroke-width="1" opacity="1" d="M 560.5 487 L 563 487.5 L 560.5 488 L 560.5 487 Z " /><path fill="rgb(255,255,255)" stroke="rgb(255,255,255)" stroke-width="1" opacity="1" d="M 0 0 L 720 0 L 720 496 L 0 496 L 0 0 Z M 233 7 L 233 129 L 234 130 L 234 138 L 236 148 L 239 158 Q 244 171 252 181 Q 262 194 279 201 L 291 205 L 305 206 L 306 207 L 325 206 L 334 204 Q 349 199 360 190 Q 373 179 380 162 L 387 135 L 387 8 L 387 7 L 378 7 L 378 130 L 373 153 L 361 175 Q 351 186 337 193 L 328 196 L 314 197 L 313 198 L 311 198 L 311 7 L 233 7 Z M 346 271 L 338 273 L 331 277 L 324 287 L 324 301 L 327 307 L 338 314 L 358 318 L 366 321 Q 370 324 372 331 Q 373 338 370 342 Q 366 348 358 349 L 343 349 Q 331 347 324 342 L 321 352 L 333 357 L 345 358 L 346 359 L 361 358 L 373 353 Q 380 349 382 340 Q 384 326 379 320 Q 375 313 367 310 L 347 306 L 340 303 L 334 297 L 335 288 Q 338 281 347 280 L 361 281 L 374 286 L 377 277 L 364 272 L 346 271 Z M 462 271 L 447 275 L 439 280 L 428 292 L 424 301 L 422 312 L 424 330 L 431 343 Q 438 352 450 356 L 465 359 L 483 357 L 499 348 Q 509 340 512 325 L 512 306 Q 510 295 504 288 Q 498 280 489 275 L 474 271 L 462 271 Z M 6 273 L 6 330 L 9 341 L 15 350 L 25 356 L 38 359 L 51 358 L 63 353 L 70 346 L 74 338 L 76 329 L 76 274 L 76 273 L 65 273 L 65 330 L 61 340 Q 57 347 48 349 Q 31 351 25 344 L 19 337 L 16 323 L 16 274 L 16 273 L 6 273 Z M 121 273 L 121 357 L 172 357 L 172 349 L 172 348 L 132 348 L 132 274 L 132 273 L 121 273 Z M 209 273 L 209 325 L 211 336 L 216 347 Q 221 354 231 357 L 242 359 L 259 357 L 268 352 Q 274 347 277 339 L 280 323 L 280 274 L 280 273 L 269 273 L 269 327 L 264 341 Q 259 347 252 349 Q 237 351 231 346 L 223 338 L 220 328 L 220 274 L 220 273 L 209 273 Z M 545 273 L 546 277 L 577 325 L 577 357 L 578 357 L 587 357 L 587 325 L 619 275 L 619 273 L 607 273 L 583 314 L 557 275 L 557 273 L 545 273 Z M 361 434 Q 357 435 358 440 Q 359 442 365 441 Q 367 440 366 437 Q 365 433 361 434 Z M 375 434 Q 371 435 372 440 Q 373 442 379 441 Q 381 440 380 437 Q 379 433 375 434 Z M 460 444 L 449 449 Q 443 454 441 463 L 441 470 L 444 479 Q 448 486 458 488 Q 471 490 478 485 Q 485 480 487 470 L 487 463 L 483 453 Q 477 443 460 444 Z M 508 444 L 503 446 L 498 452 Q 497 458 499 462 L 505 466 L 516 468 L 520 470 L 522 474 L 521 480 L 516 483 L 507 483 L 499 480 L 496 485 L 504 488 Q 516 490 523 486 Q 527 483 528 477 L 526 469 L 519 463 L 506 460 L 503 457 L 504 453 L 510 449 L 515 449 L 523 452 Q 526 451 525 447 L 516 444 L 508 444 Z M 47 445 L 47 488 L 53 488 L 53 488 L 53 468 L 76 468 L 76 488 L 82 488 L 82 488 L 82 445 L 76 445 L 76 463 L 53 463 L 53 445 L 47 445 Z M 95 445 L 95 476 L 98 483 L 107 488 Q 119 490 125 485 L 130 476 L 130 446 L 125 445 L 125 469 L 123 478 L 117 483 Q 110 484 107 482 L 102 478 L 100 469 L 100 446 L 95 445 Z M 143 445 L 143 488 L 149 488 L 149 475 L 158 467 L 160 472 L 172 487 L 173 488 L 179 488 L 178 485 L 161 463 L 177 446 L 171 445 L 150 467 L 149 467 L 149 446 L 149 445 L 143 445 Z M 188 445 L 188 474 L 191 482 L 200 488 Q 211 490 217 486 L 221 482 L 224 472 L 224 446 L 224 445 L 218 445 L 218 473 L 215 480 L 210 483 Q 202 484 199 481 L 194 474 L 194 446 L 194 445 L 188 445 Z M 236 445 L 236 488 L 242 488 L 242 475 L 251 467 L 263 485 Q 265 490 272 488 L 272 486 L 257 466 L 254 463 L 270 447 Q 271 444 264 445 L 251 459 L 242 467 L 242 446 L 242 445 L 236 445 Z M 308 445 L 308 488 L 325 488 L 334 486 Q 338 483 340 477 L 339 470 L 333 465 L 337 458 L 336 451 Q 333 446 328 445 L 308 445 Z M 351 445 L 351 474 L 354 482 L 363 488 Q 374 490 380 486 L 384 482 L 387 473 L 387 446 L 387 445 L 381 445 L 381 473 L 378 480 L 373 483 Q 365 484 362 481 L 357 474 L 357 446 L 357 445 L 351 445 Z M 400 445 L 400 488 L 405 488 L 405 469 L 416 469 L 426 487 L 428 488 L 434 488 L 422 469 L 426 467 L 431 460 L 430 452 Q 427 447 421 445 L 400 445 Z M 538 445 L 538 469 L 541 482 Q 544 486 551 488 L 563 488 L 570 484 L 574 475 L 574 446 L 574 445 L 568 445 L 568 475 L 566 479 L 561 483 Q 554 484 551 482 Q 545 479 544 472 L 544 446 L 544 445 L 538 445 Z " /><path fill="rgb(255,255,255)" stroke="rgb(255,255,255)" stroke-width="1" opacity="1" d="M 725 0 L 1843 0 L 1843 496 L 725 496 L 725 0 Z M 1232 265 L 1230 266 L 1227 270 L 1228 278 L 1232 280 L 1240 279 Q 1243 276 1242 269 Q 1240 263 1232 265 Z M 1620 271 L 1608 275 Q 1600 279 1598 289 Q 1597 300 1601 306 L 1610 313 L 1633 318 L 1643 323 L 1646 329 L 1645 341 Q 1641 347 1632 349 L 1617 349 L 1598 342 L 1595 352 L 1608 357 L 1619 358 L 1620 359 L 1636 358 L 1649 352 Q 1655 347 1657 337 Q 1658 324 1652 318 Q 1647 312 1639 309 Q 1624 308 1614 303 L 1608 296 Q 1607 289 1610 287 Q 1614 281 1622 280 L 1635 281 L 1648 286 L 1652 279 Q 1646 274 1638 272 L 1620 271 Z M 1706 271 L 1694 274 L 1682 281 Q 1671 290 1667 306 L 1667 325 Q 1669 336 1676 344 Q 1683 351 1694 356 L 1709 359 L 1727 357 L 1742 349 L 1752 337 L 1755 330 L 1757 320 L 1756 304 L 1749 289 Q 1737 270 1706 271 Z M 854 273 L 819 355 L 820 357 L 830 357 L 840 331 L 842 329 L 880 329 L 891 357 L 903 357 L 867 275 L 867 273 L 854 273 Z M 1038 273 L 1038 357 L 1093 357 L 1093 349 L 1093 348 L 1049 348 L 1049 318 L 1087 318 L 1087 318 L 1087 310 L 1086 308 L 1049 308 L 1049 282 L 1091 282 L 1091 274 L 1091 273 L 1038 273 Z M 1370 273 L 1370 321 L 1371 322 L 1371 332 L 1377 347 Q 1382 354 1392 357 L 1403 359 L 1420 357 L 1429 352 L 1437 342 L 1441 325 L 1441 274 L 1441 273 L 1430 273 L 1430 328 L 1425 341 Q 1421 347 1413 349 Q 1397 351 1391 345 L 1386 341 L 1381 327 L 1381 274 L 1381 273 L 1370 273 Z M 1456 273 L 1456 357 L 1506 357 L 1507 356 Q 1508 349 1506 348 L 1466 348 L 1466 274 L 1466 273 L 1456 273 Z M 1514 273 L 1514 330 L 1517 341 L 1523 350 L 1533 356 L 1546 359 L 1559 358 L 1571 353 L 1578 346 L 1582 338 L 1584 329 L 1584 274 L 1584 273 L 1573 273 L 1573 330 L 1569 340 Q 1565 347 1556 349 Q 1539 351 1533 344 L 1527 337 L 1524 323 L 1524 274 L 1524 273 L 1514 273 Z M 1759 273 L 1791 325 L 1791 357 L 1792 357 L 1802 357 L 1802 324 L 1834 274 L 1823 273 L 1797 314 L 1772 275 L 1771 273 L 1759 273 Z M 1133 291 L 1121 297 L 1116 303 L 1115 303 L 1115 292 L 1106 292 L 1106 357 L 1107 357 L 1116 357 L 1116 314 L 1118 311 Q 1123 303 1134 300 Q 1142 299 1148 301 Q 1153 304 1155 312 L 1155 357 L 1156 357 L 1166 357 L 1166 317 L 1165 316 L 1166 311 Q 1172 303 1183 300 Q 1193 298 1198 302 L 1203 311 Q 1202 316 1204 318 L 1204 357 L 1205 357 L 1214 357 L 1214 313 L 1212 305 L 1208 298 Q 1203 293 1196 291 Q 1171 289 1163 302 Q 1160 303 1161 301 Q 1155 288 1133 291 Z M 1283 291 L 1270 297 L 1266 302 L 1264 297 L 1264 292 L 1255 292 L 1255 357 L 1256 357 L 1266 357 L 1266 313 L 1270 308 Q 1275 302 1284 300 L 1297 300 L 1301 302 Q 1305 305 1307 312 L 1307 357 L 1308 357 L 1318 357 L 1318 316 L 1314 302 Q 1309 294 1299 291 L 1283 291 Z M 901 292 L 929 356 L 930 357 L 942 357 L 971 295 L 971 292 L 960 292 L 940 340 L 936 347 L 913 295 L 913 292 L 901 292 Z M 1230 292 L 1230 357 L 1231 357 L 1240 357 L 1240 293 L 1240 292 L 1230 292 Z M 977 342 L 974 343 L 970 350 L 972 356 L 976 358 L 984 357 L 987 351 L 985 345 Q 983 341 977 342 Z " /><path fill="rgb(255,255,255)" stroke="rgb(255,255,255)" stroke-width="1" opacity="1" d="M 243 17 L 300.5 17 L 301 17.5 L 301 197 Q 273 192.8 259 173.5 L 249 156.5 L 245 143.5 L 244 132.5 L 243 131.5 L 243 17 Z " /><path fill="rgb(255,255,255)" stroke="rgb(255,255,255)" stroke-width="1" opacity="1" d="M 464.5 280 Q 487.5 280 496 294.5 Q 502.8 303.2 502 319.5 Q 499.5 335.5 488.5 343 L 475.5 349 L 459.5 349 Q 446 345.5 439 335.5 L 433 321.5 L 433 308.5 L 435 301.5 L 442 290 L 452.5 283 L 464.5 280 Z " /><path fill="rgb(255,255,255)" stroke="rgb(255,255,255)" stroke-width="1" opacity="1" d="M 1708.5 280 Q 1729 280 1738 291.5 Q 1747.6 300.9 1746 321.5 Q 1743.1 336.1 1732.5 343 L 1719.5 349 L 1703.5 349 Q 1690.8 345.7 1684 336.5 L 1678 324.5 L 1677 310.5 L 1681 297.5 L 1690.5 287 L 1699.5 282 L 1708.5 280 Z " /><path fill="rgb(255,255,255)" stroke="rgb(255,255,255)" stroke-width="1" opacity="1" d="M 860.5 284 L 876 319.5 L 845 320 L 857 289.5 L 860.5 284 Z " /><path fill="rgb(255,255,255)" stroke="rgb(255,255,255)" stroke-width="1" opacity="1" d="M 461.5 449 Q 475 448.5 479 457.5 Q 482 461.5 481 469.5 Q 479.4 476.5 474.5 480 Q 470 484.5 459.5 483 L 450 476.5 Q 446 472.1 447 462.5 Q 449.1 454.6 455.5 451 L 461.5 449 Z " /><path fill="rgb(255,255,255)" stroke="rgb(255,255,255)" stroke-width="1" opacity="1" d="M 313 450 L 326.5 450 L 330 452.5 L 331 458.5 L 324.5 463 L 313 463 L 313 450 Z " /><path fill="rgb(255,255,255)" stroke="rgb(255,255,255)" stroke-width="1" opacity="1" d="M 405 450 L 419.5 450 L 425 454.5 Q 426.3 461.8 421.5 463 L 418.5 464 L 405 464 L 405 450 Z " /><path fill="rgb(255,255,255)" stroke="rgb(255,255,255)" stroke-width="1" opacity="1" d="M 313 467 Q 326.4 464.9 333 470.5 L 334 476.5 L 330.5 481 L 328.5 482 L 313 482 L 313 467 Z " /></svg>