<?xml version="1.0" encoding="UTF-8" standalone="no" ?>
<!DOCTYPE svg PUBLIC "-//W3C//DTD SVG 1.1//EN" "http://www.w3.org/Graphics/SVG/1.1/DTD/svg11.dtd">
<svg xmlns="http://www.w3.org/2000/svg" xmlns:xlink="http://www.w3.org/1999/xlink" version="1.1" width="500" height="500" viewBox="0 0 500 500" xml:space="preserve">
<desc>Created with Fabric.js 3.6.3</desc>
<defs>
</defs>
<g transform="matrix(0.5 0 0 0.5 250.25 250.25)"  >
<rect style="stroke: none; stroke-width: 1; stroke-dasharray: none; stroke-linecap: butt; stroke-dashoffset: 0; stroke-linejoin: miter; stroke-miterlimit: 4; fill: rgb(255,255,255); fill-rule: nonzero; opacity: 1;"  x="-500" y="-500" rx="0" ry="0" width="1000" height="1000" />
</g>
<g transform="matrix(1 0 0 1 250.24999999999997 222.62742966054924)" style=""  ><path fill="#545454" opacity="1" d="M9.83 22.62L-9.83 22.62L-18.18 14.34L-18.18-28.50L-9.90-28.50L-9.90 11.31L-6.23 15.06L6.23 15.06L9.90 11.31L9.90-28.50L18.18-28.50L18.18 14.34L9.83 22.62Z"/></g><g transform="matrix(1 0 0 1 249.75000000193614 281.1115703394507)" style=""  ><path fill="#737373" opacity="1" d="M-61.97 10.24L-70.87 10.24L-74.65 6.49L-74.65-12.91L-70.91-12.91L-70.91 5.12L-69.24 6.82L-63.60 6.82L-61.94 5.12L-61.94-12.91L-58.19-12.91L-58.19 6.49L-61.97 10.24Z"/><path fill="#737373" opacity="1" d="M-31.69 10.24L-46.29 10.24L-46.29-12.91L-42.54-12.91L-42.54 6.82L-31.69 6.82L-31.69 10.24Z"/><path fill="#737373" opacity="1" d="M-9.71 10.24L-18.61 10.24L-22.40 6.49L-22.40-12.91L-18.65-12.91L-18.65 5.12L-16.98 6.82L-11.34 6.82L-9.68 5.12L-9.68-12.91L-5.93-12.91L-5.93 6.49L-9.71 10.24Z"/><path fill="#737373" opacity="1" d="M19.43-8.34L15.84-9.48L10.07-9.48L8.41-7.82L8.41-6.06L8.61-5.60L19.23-0.29L20.44 1.96L20.44 6.49L16.69 10.24L8.77 10.24L4.66 8.87L5.77 5.58L9.36 6.82L15.03 6.82L16.69 5.16L16.69 2.97L16.40 2.48L5.71-2.86L4.66-5.05L4.66-9.16L8.41-12.91L16.46-12.91L20.44-11.57L19.43-8.34Z"/><path fill="#737373" opacity="1" d="M31.36-9.16L35.47-12.91L44.69-12.91L48.80-9.16L48.80 6.49L44.69 10.24L35.47 10.24L31.36 6.49L31.36-9.16ZM45.05 5.09L45.05-7.75L43.20-9.48L36.97-9.48L35.11-7.75L35.11 5.12L36.97 6.82L43.20 6.82L45.05 5.09Z"/><path fill="#737373" opacity="1" d="M65.13 10.24L65.13 3.04L57.77-11.86L61.16-13.56L66.60-2.54L66.96-0.65L67.09-0.65L67.45-2.54L72.89-13.56L76.28-11.86L68.88 3.10L68.88 10.24L65.13 10.24Z"/></g><g transform="matrix(1 0 0 1 250.2499984335668 316.23257033945066)" style=""  ><path fill="#a6a6a6" opacity="1" d="M-61.60-1.74L-57.20-1.74L-57.20-6.33L-55.36-6.33L-55.36 5.03L-57.20 5.03L-57.20-0.06L-61.60-0.06L-61.60 5.03L-63.44 5.03L-63.44-6.33L-61.60-6.33L-61.60-1.74Z"/><path fill="#a6a6a6" opacity="1" d="M-45.62 5.03L-49.98 5.03L-51.84 3.19L-51.84-6.33L-50.00-6.33L-50.00 2.51L-49.18 3.35L-46.42 3.35L-45.60 2.51L-45.60-6.33L-43.76-6.33L-43.76 3.19L-45.62 5.03Z"/><path fill="#a6a6a6" opacity="1" d="M-32.29-5.47L-35.84-1.44L-32.30 4.42L-33.84 5.35L-37.09-0.03L-38.40 1.46L-38.40 5.03L-40.24 5.03L-40.24-6.33L-38.40-6.33L-38.40-1.26L-33.65-6.65L-32.29-5.47Z"/><path fill="#a6a6a6" opacity="1" d="M-23.50 5.03L-27.87 5.03L-29.73 3.19L-29.73-6.33L-27.89-6.33L-27.89 2.51L-27.07 3.35L-24.30 3.35L-23.49 2.51L-23.49-6.33L-21.65-6.33L-21.65 3.19L-23.50 5.03Z"/><path fill="#a6a6a6" opacity="1" d="M-10.18-5.47L-13.73-1.44L-10.19 4.42L-11.73 5.35L-14.98-0.03L-16.29 1.46L-16.29 5.03L-18.13 5.03L-18.13-6.33L-16.29-6.33L-16.29-1.26L-11.54-6.65L-10.18-5.47Z"/><path fill="#a6a6a6" opacity="1" d=""/><path fill="#a6a6a6" opacity="1" d="M6.85-1.73L5.79-0.89L7.18 0.19L7.18 3.17L5.33 5.03L-0.90 5.03L-0.90-6.33L5.31-6.33L6.85-4.80L6.85-1.73ZM5.34 2.55L5.34 0.77L4.29-0.05L0.94-0.05L0.94 3.35L4.54 3.35L5.34 2.55ZM4.51-4.65L0.94-4.65L0.94-1.73L4.37-1.73L5.01-2.22L5.01-4.16L4.51-4.65Z"/><path fill="#a6a6a6" opacity="1" d="M16.61 5.03L12.24 5.03L10.38 3.19L10.38-6.33L12.22-6.33L12.22 2.51L13.04 3.35L15.81 3.35L16.62 2.51L16.62-6.33L18.46-6.33L18.46 3.19L16.61 5.03ZM13.38-7.45L12.50-7.45L11.90-8.05L11.90-8.93L12.50-9.52L13.38-9.52L13.97-8.93L13.97-8.05L13.38-7.45ZM16.37-7.45L15.49-7.45L14.90-8.05L14.90-8.93L15.49-9.52L16.37-9.52L16.96-8.93L16.96-8.05L16.37-7.45Z"/><path fill="#a6a6a6" opacity="1" d="M28.22-3.90L27.46-4.65L23.82-4.65L23.82-1.04L27.46-1.04L28.22-1.79L28.22-3.90ZM26.86 0.53L27.23 0.82L30.26 4.13L28.91 5.35L24.62 0.64L23.82 0.64L23.82 5.03L21.98 5.03L21.98-6.33L28.32-6.33L30.06-4.61L30.06-1.09L28.32 0.64L27.26 0.64L26.90 0.48L26.86 0.53Z"/><path fill="#a6a6a6" opacity="1" d="M33.30-4.49L35.31-6.33L39.84-6.33L41.86-4.49L41.86 3.19L39.84 5.03L35.31 5.03L33.30 3.19L33.30-4.49ZM40.02 2.50L40.02-3.81L39.10-4.65L36.05-4.65L35.14-3.81L35.14 2.51L36.05 3.35L39.10 3.35L40.02 2.50Z"/><path fill="#a6a6a6" opacity="1" d="M51.98-4.09L50.22-4.65L47.39-4.65L46.58-3.84L46.58-2.97L46.67-2.75L51.89-0.14L52.48 0.96L52.48 3.19L50.64 5.03L46.75 5.03L44.74 4.35L45.28 2.74L47.04 3.35L49.82 3.35L50.64 2.53L50.64 1.46L50.50 1.22L45.25-1.41L44.74-2.48L44.74-4.49L46.58-6.33L50.53-6.33L52.48-5.68L51.98-4.09Z"/><path fill="#a6a6a6" opacity="1" d="M61.74 5.03L57.38 5.03L55.52 3.19L55.52-6.33L57.36-6.33L57.36 2.51L58.18 3.35L60.94 3.35L61.76 2.51L61.76-6.33L63.60-6.33L63.60 3.19L61.74 5.03Z"/></g></svg>